<?xml version="1.0" encoding="utf-8" standalone="no"?>
<!DOCTYPE svg PUBLIC "-//W3C//DTD SVG 1.1//EN"
  "http://www.w3.org/Graphics/SVG/1.1/DTD/svg11.dtd">
<svg xmlns:xlink="http://www.w3.org/1999/xlink" width="856.706875pt" height="711.803813pt" viewBox="0 0 856.706875 711.803813" xmlns="http://www.w3.org/2000/svg" version="1.1">
 <metadata>
  <rdf:RDF xmlns:dc="http://purl.org/dc/elements/1.1/" xmlns:cc="http://creativecommons.org/ns#" xmlns:rdf="http://www.w3.org/1999/02/22-rdf-syntax-ns#">
   <cc:Work>
    <dc:type rdf:resource="http://purl.org/dc/dcmitype/StillImage"/>
    <dc:date>2025-12-07T01:25:00.689557</dc:date>
    <dc:format>image/svg+xml</dc:format>
    <dc:creator>
     <cc:Agent>
      <dc:title>Matplotlib v3.9.2, https://matplotlib.org/</dc:title>
     </cc:Agent>
    </dc:creator>
   </cc:Work>
  </rdf:RDF>
 </metadata>
 <defs>
  <style type="text/css">*{stroke-linejoin: round; stroke-linecap: butt}</style>
 </defs>
 <g id="figure_1">
  <g id="patch_1">
   <path d="M -0 711.803813 
L 856.706875 711.803813 
L 856.706875 0 
L -0 0 
z
" style="fill: #ffffff"/>
  </g>
  <g id="axes_1">
   <g id="patch_2">
    <path d="M 295.446875 671.344125 
L 849.506875 671.344125 
L 849.506875 48.624125 
L 295.446875 48.624125 
z
" style="fill: #ffffff"/>
   </g>
   <g id="matplotlib.axis_1">
    <g id="xtick_1">
     <g id="line2d_1">
      <path d="M 320.63142 671.344125 
L 320.63142 48.624125 
" clip-path="url(#p08afb28026)" style="fill: none; stroke-dasharray: 2.96,1.28; stroke-dashoffset: 0; stroke: #b0b0b0; stroke-opacity: 0.3; stroke-width: 0.8"/>
     </g>
     <g id="line2d_2">
      <defs>
       <path id="m633afc875f" d="M 0 0 
L 0 3.5 
" style="stroke: #000000; stroke-width: 0.8"/>
      </defs>
      <g>
       <use xlink:href="#m633afc875f" x="320.63142" y="671.344125" style="stroke: #000000; stroke-width: 0.8"/>
      </g>
     </g>
     <g id="text_1">
      <!-- 0 -->
      <g transform="translate(317.45017 685.942563) scale(0.1 -0.1)">
       <defs>
        <path id="DejaVuSans-30" d="M 2034 4250 
Q 1547 4250 1301 3770 
Q 1056 3291 1056 2328 
Q 1056 1369 1301 889 
Q 1547 409 2034 409 
Q 2525 409 2770 889 
Q 3016 1369 3016 2328 
Q 3016 3291 2770 3770 
Q 2525 4250 2034 4250 
z
M 2034 4750 
Q 2819 4750 3233 4129 
Q 3647 3509 3647 2328 
Q 3647 1150 3233 529 
Q 2819 -91 2034 -91 
Q 1250 -91 836 529 
Q 422 1150 422 2328 
Q 422 3509 836 4129 
Q 1250 4750 2034 4750 
z
" transform="scale(0.015625)"/>
       </defs>
       <use xlink:href="#DejaVuSans-30"/>
      </g>
     </g>
    </g>
    <g id="xtick_2">
     <g id="line2d_3">
      <path d="M 398.634448 671.344125 
L 398.634448 48.624125 
" clip-path="url(#p08afb28026)" style="fill: none; stroke-dasharray: 2.96,1.28; stroke-dashoffset: 0; stroke: #b0b0b0; stroke-opacity: 0.3; stroke-width: 0.8"/>
     </g>
     <g id="line2d_4">
      <g>
       <use xlink:href="#m633afc875f" x="398.634448" y="671.344125" style="stroke: #000000; stroke-width: 0.8"/>
      </g>
     </g>
     <g id="text_2">
      <!-- 5 -->
      <g transform="translate(395.453198 685.942563) scale(0.1 -0.1)">
       <defs>
        <path id="DejaVuSans-35" d="M 691 4666 
L 3169 4666 
L 3169 4134 
L 1269 4134 
L 1269 2991 
Q 1406 3038 1543 3061 
Q 1681 3084 1819 3084 
Q 2600 3084 3056 2656 
Q 3513 2228 3513 1497 
Q 3513 744 3044 326 
Q 2575 -91 1722 -91 
Q 1428 -91 1123 -41 
Q 819 9 494 109 
L 494 744 
Q 775 591 1075 516 
Q 1375 441 1709 441 
Q 2250 441 2565 725 
Q 2881 1009 2881 1497 
Q 2881 1984 2565 2268 
Q 2250 2553 1709 2553 
Q 1456 2553 1204 2497 
Q 953 2441 691 2322 
L 691 4666 
z
" transform="scale(0.015625)"/>
       </defs>
       <use xlink:href="#DejaVuSans-35"/>
      </g>
     </g>
    </g>
    <g id="xtick_3">
     <g id="line2d_5">
      <path d="M 476.637475 671.344125 
L 476.637475 48.624125 
" clip-path="url(#p08afb28026)" style="fill: none; stroke-dasharray: 2.96,1.28; stroke-dashoffset: 0; stroke: #b0b0b0; stroke-opacity: 0.3; stroke-width: 0.8"/>
     </g>
     <g id="line2d_6">
      <g>
       <use xlink:href="#m633afc875f" x="476.637475" y="671.344125" style="stroke: #000000; stroke-width: 0.8"/>
      </g>
     </g>
     <g id="text_3">
      <!-- 10 -->
      <g transform="translate(470.274975 685.942563) scale(0.1 -0.1)">
       <defs>
        <path id="DejaVuSans-31" d="M 794 531 
L 1825 531 
L 1825 4091 
L 703 3866 
L 703 4441 
L 1819 4666 
L 2450 4666 
L 2450 531 
L 3481 531 
L 3481 0 
L 794 0 
L 794 531 
z
" transform="scale(0.015625)"/>
       </defs>
       <use xlink:href="#DejaVuSans-31"/>
       <use xlink:href="#DejaVuSans-30" x="63.623047"/>
      </g>
     </g>
    </g>
    <g id="xtick_4">
     <g id="line2d_7">
      <path d="M 554.640502 671.344125 
L 554.640502 48.624125 
" clip-path="url(#p08afb28026)" style="fill: none; stroke-dasharray: 2.96,1.28; stroke-dashoffset: 0; stroke: #b0b0b0; stroke-opacity: 0.3; stroke-width: 0.8"/>
     </g>
     <g id="line2d_8">
      <g>
       <use xlink:href="#m633afc875f" x="554.640502" y="671.344125" style="stroke: #000000; stroke-width: 0.8"/>
      </g>
     </g>
     <g id="text_4">
      <!-- 15 -->
      <g transform="translate(548.278002 685.942563) scale(0.1 -0.1)">
       <use xlink:href="#DejaVuSans-31"/>
       <use xlink:href="#DejaVuSans-35" x="63.623047"/>
      </g>
     </g>
    </g>
    <g id="xtick_5">
     <g id="line2d_9">
      <path d="M 632.64353 671.344125 
L 632.64353 48.624125 
" clip-path="url(#p08afb28026)" style="fill: none; stroke-dasharray: 2.96,1.28; stroke-dashoffset: 0; stroke: #b0b0b0; stroke-opacity: 0.3; stroke-width: 0.8"/>
     </g>
     <g id="line2d_10">
      <g>
       <use xlink:href="#m633afc875f" x="632.64353" y="671.344125" style="stroke: #000000; stroke-width: 0.8"/>
      </g>
     </g>
     <g id="text_5">
      <!-- 20 -->
      <g transform="translate(626.28103 685.942563) scale(0.1 -0.1)">
       <defs>
        <path id="DejaVuSans-32" d="M 1228 531 
L 3431 531 
L 3431 0 
L 469 0 
L 469 531 
Q 828 903 1448 1529 
Q 2069 2156 2228 2338 
Q 2531 2678 2651 2914 
Q 2772 3150 2772 3378 
Q 2772 3750 2511 3984 
Q 2250 4219 1831 4219 
Q 1534 4219 1204 4116 
Q 875 4013 500 3803 
L 500 4441 
Q 881 4594 1212 4672 
Q 1544 4750 1819 4750 
Q 2544 4750 2975 4387 
Q 3406 4025 3406 3419 
Q 3406 3131 3298 2873 
Q 3191 2616 2906 2266 
Q 2828 2175 2409 1742 
Q 1991 1309 1228 531 
z
" transform="scale(0.015625)"/>
       </defs>
       <use xlink:href="#DejaVuSans-32"/>
       <use xlink:href="#DejaVuSans-30" x="63.623047"/>
      </g>
     </g>
    </g>
    <g id="xtick_6">
     <g id="line2d_11">
      <path d="M 710.646557 671.344125 
L 710.646557 48.624125 
" clip-path="url(#p08afb28026)" style="fill: none; stroke-dasharray: 2.96,1.28; stroke-dashoffset: 0; stroke: #b0b0b0; stroke-opacity: 0.3; stroke-width: 0.8"/>
     </g>
     <g id="line2d_12">
      <g>
       <use xlink:href="#m633afc875f" x="710.646557" y="671.344125" style="stroke: #000000; stroke-width: 0.8"/>
      </g>
     </g>
     <g id="text_6">
      <!-- 25 -->
      <g transform="translate(704.284057 685.942563) scale(0.1 -0.1)">
       <use xlink:href="#DejaVuSans-32"/>
       <use xlink:href="#DejaVuSans-35" x="63.623047"/>
      </g>
     </g>
    </g>
    <g id="xtick_7">
     <g id="line2d_13">
      <path d="M 788.649584 671.344125 
L 788.649584 48.624125 
" clip-path="url(#p08afb28026)" style="fill: none; stroke-dasharray: 2.96,1.28; stroke-dashoffset: 0; stroke: #b0b0b0; stroke-opacity: 0.3; stroke-width: 0.8"/>
     </g>
     <g id="line2d_14">
      <g>
       <use xlink:href="#m633afc875f" x="788.649584" y="671.344125" style="stroke: #000000; stroke-width: 0.8"/>
      </g>
     </g>
     <g id="text_7">
      <!-- 30 -->
      <g transform="translate(782.287084 685.942563) scale(0.1 -0.1)">
       <defs>
        <path id="DejaVuSans-33" d="M 2597 2516 
Q 3050 2419 3304 2112 
Q 3559 1806 3559 1356 
Q 3559 666 3084 287 
Q 2609 -91 1734 -91 
Q 1441 -91 1130 -33 
Q 819 25 488 141 
L 488 750 
Q 750 597 1062 519 
Q 1375 441 1716 441 
Q 2309 441 2620 675 
Q 2931 909 2931 1356 
Q 2931 1769 2642 2001 
Q 2353 2234 1838 2234 
L 1294 2234 
L 1294 2753 
L 1863 2753 
Q 2328 2753 2575 2939 
Q 2822 3125 2822 3475 
Q 2822 3834 2567 4026 
Q 2313 4219 1838 4219 
Q 1578 4219 1281 4162 
Q 984 4106 628 3988 
L 628 4550 
Q 988 4650 1302 4700 
Q 1616 4750 1894 4750 
Q 2613 4750 3031 4423 
Q 3450 4097 3450 3541 
Q 3450 3153 3228 2886 
Q 3006 2619 2597 2516 
z
" transform="scale(0.015625)"/>
       </defs>
       <use xlink:href="#DejaVuSans-33"/>
       <use xlink:href="#DejaVuSans-30" x="63.623047"/>
      </g>
     </g>
    </g>
    <g id="text_8">
     <!-- Cohen's d (Effect Size) -->
     <g style="fill: #2c3e50" transform="translate(489.771484 701.900219) scale(0.13 -0.13)">
      <defs>
       <path id="DejaVuSans-Bold-43" d="M 4288 256 
Q 3956 84 3597 -3 
Q 3238 -91 2847 -91 
Q 1681 -91 1000 561 
Q 319 1213 319 2328 
Q 319 3447 1000 4098 
Q 1681 4750 2847 4750 
Q 3238 4750 3597 4662 
Q 3956 4575 4288 4403 
L 4288 3438 
Q 3953 3666 3628 3772 
Q 3303 3878 2944 3878 
Q 2300 3878 1931 3465 
Q 1563 3053 1563 2328 
Q 1563 1606 1931 1193 
Q 2300 781 2944 781 
Q 3303 781 3628 887 
Q 3953 994 4288 1222 
L 4288 256 
z
" transform="scale(0.015625)"/>
       <path id="DejaVuSans-Bold-6f" d="M 2203 2784 
Q 1831 2784 1636 2517 
Q 1441 2250 1441 1747 
Q 1441 1244 1636 976 
Q 1831 709 2203 709 
Q 2569 709 2762 976 
Q 2956 1244 2956 1747 
Q 2956 2250 2762 2517 
Q 2569 2784 2203 2784 
z
M 2203 3584 
Q 3106 3584 3614 3096 
Q 4122 2609 4122 1747 
Q 4122 884 3614 396 
Q 3106 -91 2203 -91 
Q 1297 -91 786 396 
Q 275 884 275 1747 
Q 275 2609 786 3096 
Q 1297 3584 2203 3584 
z
" transform="scale(0.015625)"/>
       <path id="DejaVuSans-Bold-68" d="M 4056 2131 
L 4056 0 
L 2931 0 
L 2931 347 
L 2931 1625 
Q 2931 2084 2911 2256 
Q 2891 2428 2841 2509 
Q 2775 2619 2662 2680 
Q 2550 2741 2406 2741 
Q 2056 2741 1856 2470 
Q 1656 2200 1656 1722 
L 1656 0 
L 538 0 
L 538 4863 
L 1656 4863 
L 1656 2988 
Q 1909 3294 2193 3439 
Q 2478 3584 2822 3584 
Q 3428 3584 3742 3212 
Q 4056 2841 4056 2131 
z
" transform="scale(0.015625)"/>
       <path id="DejaVuSans-Bold-65" d="M 4031 1759 
L 4031 1441 
L 1416 1441 
Q 1456 1047 1700 850 
Q 1944 653 2381 653 
Q 2734 653 3104 758 
Q 3475 863 3866 1075 
L 3866 213 
Q 3469 63 3072 -14 
Q 2675 -91 2278 -91 
Q 1328 -91 801 392 
Q 275 875 275 1747 
Q 275 2603 792 3093 
Q 1309 3584 2216 3584 
Q 3041 3584 3536 3087 
Q 4031 2591 4031 1759 
z
M 2881 2131 
Q 2881 2450 2695 2645 
Q 2509 2841 2209 2841 
Q 1884 2841 1681 2658 
Q 1478 2475 1428 2131 
L 2881 2131 
z
" transform="scale(0.015625)"/>
       <path id="DejaVuSans-Bold-6e" d="M 4056 2131 
L 4056 0 
L 2931 0 
L 2931 347 
L 2931 1631 
Q 2931 2084 2911 2256 
Q 2891 2428 2841 2509 
Q 2775 2619 2662 2680 
Q 2550 2741 2406 2741 
Q 2056 2741 1856 2470 
Q 1656 2200 1656 1722 
L 1656 0 
L 538 0 
L 538 3500 
L 1656 3500 
L 1656 2988 
Q 1909 3294 2193 3439 
Q 2478 3584 2822 3584 
Q 3428 3584 3742 3212 
Q 4056 2841 4056 2131 
z
" transform="scale(0.015625)"/>
       <path id="DejaVuSans-Bold-27" d="M 1350 4666 
L 1350 2931 
L 609 2931 
L 609 4666 
L 1350 4666 
z
" transform="scale(0.015625)"/>
       <path id="DejaVuSans-Bold-73" d="M 3272 3391 
L 3272 2541 
Q 2913 2691 2578 2766 
Q 2244 2841 1947 2841 
Q 1628 2841 1473 2761 
Q 1319 2681 1319 2516 
Q 1319 2381 1436 2309 
Q 1553 2238 1856 2203 
L 2053 2175 
Q 2913 2066 3209 1816 
Q 3506 1566 3506 1031 
Q 3506 472 3093 190 
Q 2681 -91 1863 -91 
Q 1516 -91 1145 -36 
Q 775 19 384 128 
L 384 978 
Q 719 816 1070 734 
Q 1422 653 1784 653 
Q 2113 653 2278 743 
Q 2444 834 2444 1013 
Q 2444 1163 2330 1236 
Q 2216 1309 1875 1350 
L 1678 1375 
Q 931 1469 631 1722 
Q 331 1975 331 2491 
Q 331 3047 712 3315 
Q 1094 3584 1881 3584 
Q 2191 3584 2531 3537 
Q 2872 3491 3272 3391 
z
" transform="scale(0.015625)"/>
       <path id="DejaVuSans-Bold-20" transform="scale(0.015625)"/>
       <path id="DejaVuSans-Bold-64" d="M 2919 2988 
L 2919 4863 
L 4044 4863 
L 4044 0 
L 2919 0 
L 2919 506 
Q 2688 197 2409 53 
Q 2131 -91 1766 -91 
Q 1119 -91 703 423 
Q 288 938 288 1747 
Q 288 2556 703 3070 
Q 1119 3584 1766 3584 
Q 2128 3584 2408 3439 
Q 2688 3294 2919 2988 
z
M 2181 722 
Q 2541 722 2730 984 
Q 2919 1247 2919 1747 
Q 2919 2247 2730 2509 
Q 2541 2772 2181 2772 
Q 1825 2772 1636 2509 
Q 1447 2247 1447 1747 
Q 1447 1247 1636 984 
Q 1825 722 2181 722 
z
" transform="scale(0.015625)"/>
       <path id="DejaVuSans-Bold-28" d="M 2413 -844 
L 1484 -844 
Q 1006 -72 778 623 
Q 550 1319 550 2003 
Q 550 2688 779 3389 
Q 1009 4091 1484 4856 
L 2413 4856 
Q 2013 4116 1813 3408 
Q 1613 2700 1613 2009 
Q 1613 1319 1811 609 
Q 2009 -100 2413 -844 
z
" transform="scale(0.015625)"/>
       <path id="DejaVuSans-Bold-45" d="M 588 4666 
L 3834 4666 
L 3834 3756 
L 1791 3756 
L 1791 2888 
L 3713 2888 
L 3713 1978 
L 1791 1978 
L 1791 909 
L 3903 909 
L 3903 0 
L 588 0 
L 588 4666 
z
" transform="scale(0.015625)"/>
       <path id="DejaVuSans-Bold-66" d="M 2841 4863 
L 2841 4128 
L 2222 4128 
Q 1984 4128 1890 4042 
Q 1797 3956 1797 3744 
L 1797 3500 
L 2753 3500 
L 2753 2700 
L 1797 2700 
L 1797 0 
L 678 0 
L 678 2700 
L 122 2700 
L 122 3500 
L 678 3500 
L 678 3744 
Q 678 4316 997 4589 
Q 1316 4863 1984 4863 
L 2841 4863 
z
" transform="scale(0.015625)"/>
       <path id="DejaVuSans-Bold-63" d="M 3366 3391 
L 3366 2478 
Q 3138 2634 2908 2709 
Q 2678 2784 2431 2784 
Q 1963 2784 1702 2511 
Q 1441 2238 1441 1747 
Q 1441 1256 1702 982 
Q 1963 709 2431 709 
Q 2694 709 2930 787 
Q 3166 866 3366 1019 
L 3366 103 
Q 3103 6 2833 -42 
Q 2563 -91 2291 -91 
Q 1344 -91 809 395 
Q 275 881 275 1747 
Q 275 2613 809 3098 
Q 1344 3584 2291 3584 
Q 2566 3584 2833 3536 
Q 3100 3488 3366 3391 
z
" transform="scale(0.015625)"/>
       <path id="DejaVuSans-Bold-74" d="M 1759 4494 
L 1759 3500 
L 2913 3500 
L 2913 2700 
L 1759 2700 
L 1759 1216 
Q 1759 972 1856 886 
Q 1953 800 2241 800 
L 2816 800 
L 2816 0 
L 1856 0 
Q 1194 0 917 276 
Q 641 553 641 1216 
L 641 2700 
L 84 2700 
L 84 3500 
L 641 3500 
L 641 4494 
L 1759 4494 
z
" transform="scale(0.015625)"/>
       <path id="DejaVuSans-Bold-53" d="M 3834 4519 
L 3834 3531 
Q 3450 3703 3084 3790 
Q 2719 3878 2394 3878 
Q 1963 3878 1756 3759 
Q 1550 3641 1550 3391 
Q 1550 3203 1689 3098 
Q 1828 2994 2194 2919 
L 2706 2816 
Q 3484 2659 3812 2340 
Q 4141 2022 4141 1434 
Q 4141 663 3683 286 
Q 3225 -91 2284 -91 
Q 1841 -91 1394 -6 
Q 947 78 500 244 
L 500 1259 
Q 947 1022 1364 901 
Q 1781 781 2169 781 
Q 2563 781 2772 912 
Q 2981 1044 2981 1288 
Q 2981 1506 2839 1625 
Q 2697 1744 2272 1838 
L 1806 1941 
Q 1106 2091 782 2419 
Q 459 2747 459 3303 
Q 459 4000 909 4375 
Q 1359 4750 2203 4750 
Q 2588 4750 2994 4692 
Q 3400 4634 3834 4519 
z
" transform="scale(0.015625)"/>
       <path id="DejaVuSans-Bold-69" d="M 538 3500 
L 1656 3500 
L 1656 0 
L 538 0 
L 538 3500 
z
M 538 4863 
L 1656 4863 
L 1656 3950 
L 538 3950 
L 538 4863 
z
" transform="scale(0.015625)"/>
       <path id="DejaVuSans-Bold-7a" d="M 366 3500 
L 3419 3500 
L 3419 2719 
L 1575 800 
L 3419 800 
L 3419 0 
L 288 0 
L 288 781 
L 2131 2700 
L 366 2700 
L 366 3500 
z
" transform="scale(0.015625)"/>
       <path id="DejaVuSans-Bold-29" d="M 513 -844 
Q 913 -100 1113 609 
Q 1313 1319 1313 2009 
Q 1313 2700 1113 3408 
Q 913 4116 513 4856 
L 1441 4856 
Q 1916 4091 2145 3389 
Q 2375 2688 2375 2003 
Q 2375 1319 2147 623 
Q 1919 -72 1441 -844 
L 513 -844 
z
" transform="scale(0.015625)"/>
      </defs>
      <use xlink:href="#DejaVuSans-Bold-43"/>
      <use xlink:href="#DejaVuSans-Bold-6f" x="73.388672"/>
      <use xlink:href="#DejaVuSans-Bold-68" x="142.089844"/>
      <use xlink:href="#DejaVuSans-Bold-65" x="213.28125"/>
      <use xlink:href="#DejaVuSans-Bold-6e" x="281.103516"/>
      <use xlink:href="#DejaVuSans-Bold-27" x="352.294922"/>
      <use xlink:href="#DejaVuSans-Bold-73" x="382.910156"/>
      <use xlink:href="#DejaVuSans-Bold-20" x="442.431641"/>
      <use xlink:href="#DejaVuSans-Bold-64" x="477.246094"/>
      <use xlink:href="#DejaVuSans-Bold-20" x="548.828125"/>
      <use xlink:href="#DejaVuSans-Bold-28" x="583.642578"/>
      <use xlink:href="#DejaVuSans-Bold-45" x="629.345703"/>
      <use xlink:href="#DejaVuSans-Bold-66" x="697.65625"/>
      <use xlink:href="#DejaVuSans-Bold-66" x="741.162109"/>
      <use xlink:href="#DejaVuSans-Bold-65" x="784.667969"/>
      <use xlink:href="#DejaVuSans-Bold-63" x="852.490234"/>
      <use xlink:href="#DejaVuSans-Bold-74" x="911.767578"/>
      <use xlink:href="#DejaVuSans-Bold-20" x="959.570312"/>
      <use xlink:href="#DejaVuSans-Bold-53" x="994.384766"/>
      <use xlink:href="#DejaVuSans-Bold-69" x="1066.40625"/>
      <use xlink:href="#DejaVuSans-Bold-7a" x="1100.683594"/>
      <use xlink:href="#DejaVuSans-Bold-65" x="1158.886719"/>
      <use xlink:href="#DejaVuSans-Bold-29" x="1226.708984"/>
     </g>
    </g>
   </g>
   <g id="matplotlib.axis_2">
    <g id="ytick_1">
     <g id="line2d_15">
      <defs>
       <path id="m9f57b7f1a3" d="M 0 0 
L -3.5 0 
" style="stroke: #000000; stroke-width: 0.8"/>
      </defs>
      <g>
       <use xlink:href="#m9f57b7f1a3" x="295.446875" y="76.92958" style="stroke: #000000; stroke-width: 0.8"/>
      </g>
     </g>
     <g id="text_9">
      <!-- ELAV-like protein 4 -->
      <g transform="translate(194.86875 80.728798) scale(0.1 -0.1)">
       <defs>
        <path id="DejaVuSans-45" d="M 628 4666 
L 3578 4666 
L 3578 4134 
L 1259 4134 
L 1259 2753 
L 3481 2753 
L 3481 2222 
L 1259 2222 
L 1259 531 
L 3634 531 
L 3634 0 
L 628 0 
L 628 4666 
z
" transform="scale(0.015625)"/>
        <path id="DejaVuSans-4c" d="M 628 4666 
L 1259 4666 
L 1259 531 
L 3531 531 
L 3531 0 
L 628 0 
L 628 4666 
z
" transform="scale(0.015625)"/>
        <path id="DejaVuSans-41" d="M 2188 4044 
L 1331 1722 
L 3047 1722 
L 2188 4044 
z
M 1831 4666 
L 2547 4666 
L 4325 0 
L 3669 0 
L 3244 1197 
L 1141 1197 
L 716 0 
L 50 0 
L 1831 4666 
z
" transform="scale(0.015625)"/>
        <path id="DejaVuSans-56" d="M 1831 0 
L 50 4666 
L 709 4666 
L 2188 738 
L 3669 4666 
L 4325 4666 
L 2547 0 
L 1831 0 
z
" transform="scale(0.015625)"/>
        <path id="DejaVuSans-2d" d="M 313 2009 
L 1997 2009 
L 1997 1497 
L 313 1497 
L 313 2009 
z
" transform="scale(0.015625)"/>
        <path id="DejaVuSans-6c" d="M 603 4863 
L 1178 4863 
L 1178 0 
L 603 0 
L 603 4863 
z
" transform="scale(0.015625)"/>
        <path id="DejaVuSans-69" d="M 603 3500 
L 1178 3500 
L 1178 0 
L 603 0 
L 603 3500 
z
M 603 4863 
L 1178 4863 
L 1178 4134 
L 603 4134 
L 603 4863 
z
" transform="scale(0.015625)"/>
        <path id="DejaVuSans-6b" d="M 581 4863 
L 1159 4863 
L 1159 1991 
L 2875 3500 
L 3609 3500 
L 1753 1863 
L 3688 0 
L 2938 0 
L 1159 1709 
L 1159 0 
L 581 0 
L 581 4863 
z
" transform="scale(0.015625)"/>
        <path id="DejaVuSans-65" d="M 3597 1894 
L 3597 1613 
L 953 1613 
Q 991 1019 1311 708 
Q 1631 397 2203 397 
Q 2534 397 2845 478 
Q 3156 559 3463 722 
L 3463 178 
Q 3153 47 2828 -22 
Q 2503 -91 2169 -91 
Q 1331 -91 842 396 
Q 353 884 353 1716 
Q 353 2575 817 3079 
Q 1281 3584 2069 3584 
Q 2775 3584 3186 3129 
Q 3597 2675 3597 1894 
z
M 3022 2063 
Q 3016 2534 2758 2815 
Q 2500 3097 2075 3097 
Q 1594 3097 1305 2825 
Q 1016 2553 972 2059 
L 3022 2063 
z
" transform="scale(0.015625)"/>
        <path id="DejaVuSans-20" transform="scale(0.015625)"/>
        <path id="DejaVuSans-70" d="M 1159 525 
L 1159 -1331 
L 581 -1331 
L 581 3500 
L 1159 3500 
L 1159 2969 
Q 1341 3281 1617 3432 
Q 1894 3584 2278 3584 
Q 2916 3584 3314 3078 
Q 3713 2572 3713 1747 
Q 3713 922 3314 415 
Q 2916 -91 2278 -91 
Q 1894 -91 1617 61 
Q 1341 213 1159 525 
z
M 3116 1747 
Q 3116 2381 2855 2742 
Q 2594 3103 2138 3103 
Q 1681 3103 1420 2742 
Q 1159 2381 1159 1747 
Q 1159 1113 1420 752 
Q 1681 391 2138 391 
Q 2594 391 2855 752 
Q 3116 1113 3116 1747 
z
" transform="scale(0.015625)"/>
        <path id="DejaVuSans-72" d="M 2631 2963 
Q 2534 3019 2420 3045 
Q 2306 3072 2169 3072 
Q 1681 3072 1420 2755 
Q 1159 2438 1159 1844 
L 1159 0 
L 581 0 
L 581 3500 
L 1159 3500 
L 1159 2956 
Q 1341 3275 1631 3429 
Q 1922 3584 2338 3584 
Q 2397 3584 2469 3576 
Q 2541 3569 2628 3553 
L 2631 2963 
z
" transform="scale(0.015625)"/>
        <path id="DejaVuSans-6f" d="M 1959 3097 
Q 1497 3097 1228 2736 
Q 959 2375 959 1747 
Q 959 1119 1226 758 
Q 1494 397 1959 397 
Q 2419 397 2687 759 
Q 2956 1122 2956 1747 
Q 2956 2369 2687 2733 
Q 2419 3097 1959 3097 
z
M 1959 3584 
Q 2709 3584 3137 3096 
Q 3566 2609 3566 1747 
Q 3566 888 3137 398 
Q 2709 -91 1959 -91 
Q 1206 -91 779 398 
Q 353 888 353 1747 
Q 353 2609 779 3096 
Q 1206 3584 1959 3584 
z
" transform="scale(0.015625)"/>
        <path id="DejaVuSans-74" d="M 1172 4494 
L 1172 3500 
L 2356 3500 
L 2356 3053 
L 1172 3053 
L 1172 1153 
Q 1172 725 1289 603 
Q 1406 481 1766 481 
L 2356 481 
L 2356 0 
L 1766 0 
Q 1100 0 847 248 
Q 594 497 594 1153 
L 594 3053 
L 172 3053 
L 172 3500 
L 594 3500 
L 594 4494 
L 1172 4494 
z
" transform="scale(0.015625)"/>
        <path id="DejaVuSans-6e" d="M 3513 2113 
L 3513 0 
L 2938 0 
L 2938 2094 
Q 2938 2591 2744 2837 
Q 2550 3084 2163 3084 
Q 1697 3084 1428 2787 
Q 1159 2491 1159 1978 
L 1159 0 
L 581 0 
L 581 3500 
L 1159 3500 
L 1159 2956 
Q 1366 3272 1645 3428 
Q 1925 3584 2291 3584 
Q 2894 3584 3203 3211 
Q 3513 2838 3513 2113 
z
" transform="scale(0.015625)"/>
        <path id="DejaVuSans-34" d="M 2419 4116 
L 825 1625 
L 2419 1625 
L 2419 4116 
z
M 2253 4666 
L 3047 4666 
L 3047 1625 
L 3713 1625 
L 3713 1100 
L 3047 1100 
L 3047 0 
L 2419 0 
L 2419 1100 
L 313 1100 
L 313 1709 
L 2253 4666 
z
" transform="scale(0.015625)"/>
       </defs>
       <use xlink:href="#DejaVuSans-45"/>
       <use xlink:href="#DejaVuSans-4c" x="63.183594"/>
       <use xlink:href="#DejaVuSans-41" x="121.146484"/>
       <use xlink:href="#DejaVuSans-56" x="183.179688"/>
       <use xlink:href="#DejaVuSans-2d" x="245.712891"/>
       <use xlink:href="#DejaVuSans-6c" x="281.796875"/>
       <use xlink:href="#DejaVuSans-69" x="309.580078"/>
       <use xlink:href="#DejaVuSans-6b" x="337.363281"/>
       <use xlink:href="#DejaVuSans-65" x="391.648438"/>
       <use xlink:href="#DejaVuSans-20" x="453.171875"/>
       <use xlink:href="#DejaVuSans-70" x="484.958984"/>
       <use xlink:href="#DejaVuSans-72" x="548.435547"/>
       <use xlink:href="#DejaVuSans-6f" x="587.298828"/>
       <use xlink:href="#DejaVuSans-74" x="648.480469"/>
       <use xlink:href="#DejaVuSans-65" x="687.689453"/>
       <use xlink:href="#DejaVuSans-69" x="749.212891"/>
       <use xlink:href="#DejaVuSans-6e" x="776.996094"/>
       <use xlink:href="#DejaVuSans-20" x="840.375"/>
       <use xlink:href="#DejaVuSans-34" x="872.162109"/>
      </g>
     </g>
    </g>
    <g id="ytick_2">
     <g id="line2d_16">
      <g>
       <use xlink:href="#m9f57b7f1a3" x="295.446875" y="117.365943" style="stroke: #000000; stroke-width: 0.8"/>
      </g>
     </g>
     <g id="text_10">
      <!-- Palmitoyltransferase ZDHHC1 -->
      <g transform="translate(139.610937 121.165162) scale(0.1 -0.1)">
       <defs>
        <path id="DejaVuSans-50" d="M 1259 4147 
L 1259 2394 
L 2053 2394 
Q 2494 2394 2734 2622 
Q 2975 2850 2975 3272 
Q 2975 3691 2734 3919 
Q 2494 4147 2053 4147 
L 1259 4147 
z
M 628 4666 
L 2053 4666 
Q 2838 4666 3239 4311 
Q 3641 3956 3641 3272 
Q 3641 2581 3239 2228 
Q 2838 1875 2053 1875 
L 1259 1875 
L 1259 0 
L 628 0 
L 628 4666 
z
" transform="scale(0.015625)"/>
        <path id="DejaVuSans-61" d="M 2194 1759 
Q 1497 1759 1228 1600 
Q 959 1441 959 1056 
Q 959 750 1161 570 
Q 1363 391 1709 391 
Q 2188 391 2477 730 
Q 2766 1069 2766 1631 
L 2766 1759 
L 2194 1759 
z
M 3341 1997 
L 3341 0 
L 2766 0 
L 2766 531 
Q 2569 213 2275 61 
Q 1981 -91 1556 -91 
Q 1019 -91 701 211 
Q 384 513 384 1019 
Q 384 1609 779 1909 
Q 1175 2209 1959 2209 
L 2766 2209 
L 2766 2266 
Q 2766 2663 2505 2880 
Q 2244 3097 1772 3097 
Q 1472 3097 1187 3025 
Q 903 2953 641 2809 
L 641 3341 
Q 956 3463 1253 3523 
Q 1550 3584 1831 3584 
Q 2591 3584 2966 3190 
Q 3341 2797 3341 1997 
z
" transform="scale(0.015625)"/>
        <path id="DejaVuSans-6d" d="M 3328 2828 
Q 3544 3216 3844 3400 
Q 4144 3584 4550 3584 
Q 5097 3584 5394 3201 
Q 5691 2819 5691 2113 
L 5691 0 
L 5113 0 
L 5113 2094 
Q 5113 2597 4934 2840 
Q 4756 3084 4391 3084 
Q 3944 3084 3684 2787 
Q 3425 2491 3425 1978 
L 3425 0 
L 2847 0 
L 2847 2094 
Q 2847 2600 2669 2842 
Q 2491 3084 2119 3084 
Q 1678 3084 1418 2786 
Q 1159 2488 1159 1978 
L 1159 0 
L 581 0 
L 581 3500 
L 1159 3500 
L 1159 2956 
Q 1356 3278 1631 3431 
Q 1906 3584 2284 3584 
Q 2666 3584 2933 3390 
Q 3200 3197 3328 2828 
z
" transform="scale(0.015625)"/>
        <path id="DejaVuSans-79" d="M 2059 -325 
Q 1816 -950 1584 -1140 
Q 1353 -1331 966 -1331 
L 506 -1331 
L 506 -850 
L 844 -850 
Q 1081 -850 1212 -737 
Q 1344 -625 1503 -206 
L 1606 56 
L 191 3500 
L 800 3500 
L 1894 763 
L 2988 3500 
L 3597 3500 
L 2059 -325 
z
" transform="scale(0.015625)"/>
        <path id="DejaVuSans-73" d="M 2834 3397 
L 2834 2853 
Q 2591 2978 2328 3040 
Q 2066 3103 1784 3103 
Q 1356 3103 1142 2972 
Q 928 2841 928 2578 
Q 928 2378 1081 2264 
Q 1234 2150 1697 2047 
L 1894 2003 
Q 2506 1872 2764 1633 
Q 3022 1394 3022 966 
Q 3022 478 2636 193 
Q 2250 -91 1575 -91 
Q 1294 -91 989 -36 
Q 684 19 347 128 
L 347 722 
Q 666 556 975 473 
Q 1284 391 1588 391 
Q 1994 391 2212 530 
Q 2431 669 2431 922 
Q 2431 1156 2273 1281 
Q 2116 1406 1581 1522 
L 1381 1569 
Q 847 1681 609 1914 
Q 372 2147 372 2553 
Q 372 3047 722 3315 
Q 1072 3584 1716 3584 
Q 2034 3584 2315 3537 
Q 2597 3491 2834 3397 
z
" transform="scale(0.015625)"/>
        <path id="DejaVuSans-66" d="M 2375 4863 
L 2375 4384 
L 1825 4384 
Q 1516 4384 1395 4259 
Q 1275 4134 1275 3809 
L 1275 3500 
L 2222 3500 
L 2222 3053 
L 1275 3053 
L 1275 0 
L 697 0 
L 697 3053 
L 147 3053 
L 147 3500 
L 697 3500 
L 697 3744 
Q 697 4328 969 4595 
Q 1241 4863 1831 4863 
L 2375 4863 
z
" transform="scale(0.015625)"/>
        <path id="DejaVuSans-5a" d="M 359 4666 
L 4025 4666 
L 4025 4184 
L 1075 531 
L 4097 531 
L 4097 0 
L 288 0 
L 288 481 
L 3238 4134 
L 359 4134 
L 359 4666 
z
" transform="scale(0.015625)"/>
        <path id="DejaVuSans-44" d="M 1259 4147 
L 1259 519 
L 2022 519 
Q 2988 519 3436 956 
Q 3884 1394 3884 2338 
Q 3884 3275 3436 3711 
Q 2988 4147 2022 4147 
L 1259 4147 
z
M 628 4666 
L 1925 4666 
Q 3281 4666 3915 4102 
Q 4550 3538 4550 2338 
Q 4550 1131 3912 565 
Q 3275 0 1925 0 
L 628 0 
L 628 4666 
z
" transform="scale(0.015625)"/>
        <path id="DejaVuSans-48" d="M 628 4666 
L 1259 4666 
L 1259 2753 
L 3553 2753 
L 3553 4666 
L 4184 4666 
L 4184 0 
L 3553 0 
L 3553 2222 
L 1259 2222 
L 1259 0 
L 628 0 
L 628 4666 
z
" transform="scale(0.015625)"/>
        <path id="DejaVuSans-43" d="M 4122 4306 
L 4122 3641 
Q 3803 3938 3442 4084 
Q 3081 4231 2675 4231 
Q 1875 4231 1450 3742 
Q 1025 3253 1025 2328 
Q 1025 1406 1450 917 
Q 1875 428 2675 428 
Q 3081 428 3442 575 
Q 3803 722 4122 1019 
L 4122 359 
Q 3791 134 3420 21 
Q 3050 -91 2638 -91 
Q 1578 -91 968 557 
Q 359 1206 359 2328 
Q 359 3453 968 4101 
Q 1578 4750 2638 4750 
Q 3056 4750 3426 4639 
Q 3797 4528 4122 4306 
z
" transform="scale(0.015625)"/>
       </defs>
       <use xlink:href="#DejaVuSans-50"/>
       <use xlink:href="#DejaVuSans-61" x="55.802734"/>
       <use xlink:href="#DejaVuSans-6c" x="117.082031"/>
       <use xlink:href="#DejaVuSans-6d" x="144.865234"/>
       <use xlink:href="#DejaVuSans-69" x="242.277344"/>
       <use xlink:href="#DejaVuSans-74" x="270.060547"/>
       <use xlink:href="#DejaVuSans-6f" x="309.269531"/>
       <use xlink:href="#DejaVuSans-79" x="370.451172"/>
       <use xlink:href="#DejaVuSans-6c" x="429.630859"/>
       <use xlink:href="#DejaVuSans-74" x="457.414062"/>
       <use xlink:href="#DejaVuSans-72" x="496.623047"/>
       <use xlink:href="#DejaVuSans-61" x="537.736328"/>
       <use xlink:href="#DejaVuSans-6e" x="599.015625"/>
       <use xlink:href="#DejaVuSans-73" x="662.394531"/>
       <use xlink:href="#DejaVuSans-66" x="714.494141"/>
       <use xlink:href="#DejaVuSans-65" x="749.699219"/>
       <use xlink:href="#DejaVuSans-72" x="811.222656"/>
       <use xlink:href="#DejaVuSans-61" x="852.335938"/>
       <use xlink:href="#DejaVuSans-73" x="913.615234"/>
       <use xlink:href="#DejaVuSans-65" x="965.714844"/>
       <use xlink:href="#DejaVuSans-20" x="1027.238281"/>
       <use xlink:href="#DejaVuSans-5a" x="1059.025391"/>
       <use xlink:href="#DejaVuSans-44" x="1127.53125"/>
       <use xlink:href="#DejaVuSans-48" x="1204.533203"/>
       <use xlink:href="#DejaVuSans-48" x="1279.728516"/>
       <use xlink:href="#DejaVuSans-43" x="1354.923828"/>
       <use xlink:href="#DejaVuSans-31" x="1424.748047"/>
      </g>
     </g>
    </g>
    <g id="ytick_3">
     <g id="line2d_17">
      <g>
       <use xlink:href="#m9f57b7f1a3" x="295.446875" y="157.802307" style="stroke: #000000; stroke-width: 0.8"/>
      </g>
     </g>
     <g id="text_11">
      <!-- ELAV-like protein 2 -->
      <g transform="translate(194.86875 161.601526) scale(0.1 -0.1)">
       <use xlink:href="#DejaVuSans-45"/>
       <use xlink:href="#DejaVuSans-4c" x="63.183594"/>
       <use xlink:href="#DejaVuSans-41" x="121.146484"/>
       <use xlink:href="#DejaVuSans-56" x="183.179688"/>
       <use xlink:href="#DejaVuSans-2d" x="245.712891"/>
       <use xlink:href="#DejaVuSans-6c" x="281.796875"/>
       <use xlink:href="#DejaVuSans-69" x="309.580078"/>
       <use xlink:href="#DejaVuSans-6b" x="337.363281"/>
       <use xlink:href="#DejaVuSans-65" x="391.648438"/>
       <use xlink:href="#DejaVuSans-20" x="453.171875"/>
       <use xlink:href="#DejaVuSans-70" x="484.958984"/>
       <use xlink:href="#DejaVuSans-72" x="548.435547"/>
       <use xlink:href="#DejaVuSans-6f" x="587.298828"/>
       <use xlink:href="#DejaVuSans-74" x="648.480469"/>
       <use xlink:href="#DejaVuSans-65" x="687.689453"/>
       <use xlink:href="#DejaVuSans-69" x="749.212891"/>
       <use xlink:href="#DejaVuSans-6e" x="776.996094"/>
       <use xlink:href="#DejaVuSans-20" x="840.375"/>
       <use xlink:href="#DejaVuSans-32" x="872.162109"/>
      </g>
     </g>
    </g>
    <g id="ytick_4">
     <g id="line2d_18">
      <g>
       <use xlink:href="#m9f57b7f1a3" x="295.446875" y="198.23867" style="stroke: #000000; stroke-width: 0.8"/>
      </g>
     </g>
     <g id="text_12">
      <!-- Centriolar coiled-coil protein of 110 kDa -->
      <g transform="translate(88.79375 202.037889) scale(0.1 -0.1)">
       <defs>
        <path id="DejaVuSans-63" d="M 3122 3366 
L 3122 2828 
Q 2878 2963 2633 3030 
Q 2388 3097 2138 3097 
Q 1578 3097 1268 2742 
Q 959 2388 959 1747 
Q 959 1106 1268 751 
Q 1578 397 2138 397 
Q 2388 397 2633 464 
Q 2878 531 3122 666 
L 3122 134 
Q 2881 22 2623 -34 
Q 2366 -91 2075 -91 
Q 1284 -91 818 406 
Q 353 903 353 1747 
Q 353 2603 823 3093 
Q 1294 3584 2113 3584 
Q 2378 3584 2631 3529 
Q 2884 3475 3122 3366 
z
" transform="scale(0.015625)"/>
        <path id="DejaVuSans-64" d="M 2906 2969 
L 2906 4863 
L 3481 4863 
L 3481 0 
L 2906 0 
L 2906 525 
Q 2725 213 2448 61 
Q 2172 -91 1784 -91 
Q 1150 -91 751 415 
Q 353 922 353 1747 
Q 353 2572 751 3078 
Q 1150 3584 1784 3584 
Q 2172 3584 2448 3432 
Q 2725 3281 2906 2969 
z
M 947 1747 
Q 947 1113 1208 752 
Q 1469 391 1925 391 
Q 2381 391 2643 752 
Q 2906 1113 2906 1747 
Q 2906 2381 2643 2742 
Q 2381 3103 1925 3103 
Q 1469 3103 1208 2742 
Q 947 2381 947 1747 
z
" transform="scale(0.015625)"/>
       </defs>
       <use xlink:href="#DejaVuSans-43"/>
       <use xlink:href="#DejaVuSans-65" x="69.824219"/>
       <use xlink:href="#DejaVuSans-6e" x="131.347656"/>
       <use xlink:href="#DejaVuSans-74" x="194.726562"/>
       <use xlink:href="#DejaVuSans-72" x="233.935547"/>
       <use xlink:href="#DejaVuSans-69" x="275.048828"/>
       <use xlink:href="#DejaVuSans-6f" x="302.832031"/>
       <use xlink:href="#DejaVuSans-6c" x="364.013672"/>
       <use xlink:href="#DejaVuSans-61" x="391.796875"/>
       <use xlink:href="#DejaVuSans-72" x="453.076172"/>
       <use xlink:href="#DejaVuSans-20" x="494.189453"/>
       <use xlink:href="#DejaVuSans-63" x="525.976562"/>
       <use xlink:href="#DejaVuSans-6f" x="580.957031"/>
       <use xlink:href="#DejaVuSans-69" x="642.138672"/>
       <use xlink:href="#DejaVuSans-6c" x="669.921875"/>
       <use xlink:href="#DejaVuSans-65" x="697.705078"/>
       <use xlink:href="#DejaVuSans-64" x="759.228516"/>
       <use xlink:href="#DejaVuSans-2d" x="822.705078"/>
       <use xlink:href="#DejaVuSans-63" x="858.789062"/>
       <use xlink:href="#DejaVuSans-6f" x="913.769531"/>
       <use xlink:href="#DejaVuSans-69" x="974.951172"/>
       <use xlink:href="#DejaVuSans-6c" x="1002.734375"/>
       <use xlink:href="#DejaVuSans-20" x="1030.517578"/>
       <use xlink:href="#DejaVuSans-70" x="1062.304688"/>
       <use xlink:href="#DejaVuSans-72" x="1125.78125"/>
       <use xlink:href="#DejaVuSans-6f" x="1164.644531"/>
       <use xlink:href="#DejaVuSans-74" x="1225.826172"/>
       <use xlink:href="#DejaVuSans-65" x="1265.035156"/>
       <use xlink:href="#DejaVuSans-69" x="1326.558594"/>
       <use xlink:href="#DejaVuSans-6e" x="1354.341797"/>
       <use xlink:href="#DejaVuSans-20" x="1417.720703"/>
       <use xlink:href="#DejaVuSans-6f" x="1449.507812"/>
       <use xlink:href="#DejaVuSans-66" x="1510.689453"/>
       <use xlink:href="#DejaVuSans-20" x="1545.894531"/>
       <use xlink:href="#DejaVuSans-31" x="1577.681641"/>
       <use xlink:href="#DejaVuSans-31" x="1641.304688"/>
       <use xlink:href="#DejaVuSans-30" x="1704.927734"/>
       <use xlink:href="#DejaVuSans-20" x="1768.550781"/>
       <use xlink:href="#DejaVuSans-6b" x="1800.337891"/>
       <use xlink:href="#DejaVuSans-44" x="1858.248047"/>
       <use xlink:href="#DejaVuSans-61" x="1935.25"/>
      </g>
     </g>
    </g>
    <g id="ytick_5">
     <g id="line2d_19">
      <g>
       <use xlink:href="#m9f57b7f1a3" x="295.446875" y="238.675034" style="stroke: #000000; stroke-width: 0.8"/>
      </g>
     </g>
     <g id="text_13">
      <!-- ELAV-like protein 4 -->
      <g transform="translate(194.86875 242.474253) scale(0.1 -0.1)">
       <use xlink:href="#DejaVuSans-45"/>
       <use xlink:href="#DejaVuSans-4c" x="63.183594"/>
       <use xlink:href="#DejaVuSans-41" x="121.146484"/>
       <use xlink:href="#DejaVuSans-56" x="183.179688"/>
       <use xlink:href="#DejaVuSans-2d" x="245.712891"/>
       <use xlink:href="#DejaVuSans-6c" x="281.796875"/>
       <use xlink:href="#DejaVuSans-69" x="309.580078"/>
       <use xlink:href="#DejaVuSans-6b" x="337.363281"/>
       <use xlink:href="#DejaVuSans-65" x="391.648438"/>
       <use xlink:href="#DejaVuSans-20" x="453.171875"/>
       <use xlink:href="#DejaVuSans-70" x="484.958984"/>
       <use xlink:href="#DejaVuSans-72" x="548.435547"/>
       <use xlink:href="#DejaVuSans-6f" x="587.298828"/>
       <use xlink:href="#DejaVuSans-74" x="648.480469"/>
       <use xlink:href="#DejaVuSans-65" x="687.689453"/>
       <use xlink:href="#DejaVuSans-69" x="749.212891"/>
       <use xlink:href="#DejaVuSans-6e" x="776.996094"/>
       <use xlink:href="#DejaVuSans-20" x="840.375"/>
       <use xlink:href="#DejaVuSans-34" x="872.162109"/>
      </g>
     </g>
    </g>
    <g id="ytick_6">
     <g id="line2d_20">
      <g>
       <use xlink:href="#m9f57b7f1a3" x="295.446875" y="279.111398" style="stroke: #000000; stroke-width: 0.8"/>
      </g>
     </g>
     <g id="text_14">
      <!-- ELAV-like protein 2 -->
      <g transform="translate(194.86875 282.910616) scale(0.1 -0.1)">
       <use xlink:href="#DejaVuSans-45"/>
       <use xlink:href="#DejaVuSans-4c" x="63.183594"/>
       <use xlink:href="#DejaVuSans-41" x="121.146484"/>
       <use xlink:href="#DejaVuSans-56" x="183.179688"/>
       <use xlink:href="#DejaVuSans-2d" x="245.712891"/>
       <use xlink:href="#DejaVuSans-6c" x="281.796875"/>
       <use xlink:href="#DejaVuSans-69" x="309.580078"/>
       <use xlink:href="#DejaVuSans-6b" x="337.363281"/>
       <use xlink:href="#DejaVuSans-65" x="391.648438"/>
       <use xlink:href="#DejaVuSans-20" x="453.171875"/>
       <use xlink:href="#DejaVuSans-70" x="484.958984"/>
       <use xlink:href="#DejaVuSans-72" x="548.435547"/>
       <use xlink:href="#DejaVuSans-6f" x="587.298828"/>
       <use xlink:href="#DejaVuSans-74" x="648.480469"/>
       <use xlink:href="#DejaVuSans-65" x="687.689453"/>
       <use xlink:href="#DejaVuSans-69" x="749.212891"/>
       <use xlink:href="#DejaVuSans-6e" x="776.996094"/>
       <use xlink:href="#DejaVuSans-20" x="840.375"/>
       <use xlink:href="#DejaVuSans-32" x="872.162109"/>
      </g>
     </g>
    </g>
    <g id="ytick_7">
     <g id="line2d_21">
      <g>
       <use xlink:href="#m9f57b7f1a3" x="295.446875" y="319.547761" style="stroke: #000000; stroke-width: 0.8"/>
      </g>
     </g>
     <g id="text_15">
      <!-- Interferon regulatory factor 2 -->
      <g transform="translate(142.065625 323.34698) scale(0.1 -0.1)">
       <defs>
        <path id="DejaVuSans-49" d="M 628 4666 
L 1259 4666 
L 1259 0 
L 628 0 
L 628 4666 
z
" transform="scale(0.015625)"/>
        <path id="DejaVuSans-67" d="M 2906 1791 
Q 2906 2416 2648 2759 
Q 2391 3103 1925 3103 
Q 1463 3103 1205 2759 
Q 947 2416 947 1791 
Q 947 1169 1205 825 
Q 1463 481 1925 481 
Q 2391 481 2648 825 
Q 2906 1169 2906 1791 
z
M 3481 434 
Q 3481 -459 3084 -895 
Q 2688 -1331 1869 -1331 
Q 1566 -1331 1297 -1286 
Q 1028 -1241 775 -1147 
L 775 -588 
Q 1028 -725 1275 -790 
Q 1522 -856 1778 -856 
Q 2344 -856 2625 -561 
Q 2906 -266 2906 331 
L 2906 616 
Q 2728 306 2450 153 
Q 2172 0 1784 0 
Q 1141 0 747 490 
Q 353 981 353 1791 
Q 353 2603 747 3093 
Q 1141 3584 1784 3584 
Q 2172 3584 2450 3431 
Q 2728 3278 2906 2969 
L 2906 3500 
L 3481 3500 
L 3481 434 
z
" transform="scale(0.015625)"/>
        <path id="DejaVuSans-75" d="M 544 1381 
L 544 3500 
L 1119 3500 
L 1119 1403 
Q 1119 906 1312 657 
Q 1506 409 1894 409 
Q 2359 409 2629 706 
Q 2900 1003 2900 1516 
L 2900 3500 
L 3475 3500 
L 3475 0 
L 2900 0 
L 2900 538 
Q 2691 219 2414 64 
Q 2138 -91 1772 -91 
Q 1169 -91 856 284 
Q 544 659 544 1381 
z
M 1991 3584 
L 1991 3584 
z
" transform="scale(0.015625)"/>
       </defs>
       <use xlink:href="#DejaVuSans-49"/>
       <use xlink:href="#DejaVuSans-6e" x="29.492188"/>
       <use xlink:href="#DejaVuSans-74" x="92.871094"/>
       <use xlink:href="#DejaVuSans-65" x="132.080078"/>
       <use xlink:href="#DejaVuSans-72" x="193.603516"/>
       <use xlink:href="#DejaVuSans-66" x="234.716797"/>
       <use xlink:href="#DejaVuSans-65" x="269.921875"/>
       <use xlink:href="#DejaVuSans-72" x="331.445312"/>
       <use xlink:href="#DejaVuSans-6f" x="370.308594"/>
       <use xlink:href="#DejaVuSans-6e" x="431.490234"/>
       <use xlink:href="#DejaVuSans-20" x="494.869141"/>
       <use xlink:href="#DejaVuSans-72" x="526.65625"/>
       <use xlink:href="#DejaVuSans-65" x="565.519531"/>
       <use xlink:href="#DejaVuSans-67" x="627.042969"/>
       <use xlink:href="#DejaVuSans-75" x="690.519531"/>
       <use xlink:href="#DejaVuSans-6c" x="753.898438"/>
       <use xlink:href="#DejaVuSans-61" x="781.681641"/>
       <use xlink:href="#DejaVuSans-74" x="842.960938"/>
       <use xlink:href="#DejaVuSans-6f" x="882.169922"/>
       <use xlink:href="#DejaVuSans-72" x="943.351562"/>
       <use xlink:href="#DejaVuSans-79" x="984.464844"/>
       <use xlink:href="#DejaVuSans-20" x="1043.644531"/>
       <use xlink:href="#DejaVuSans-66" x="1075.431641"/>
       <use xlink:href="#DejaVuSans-61" x="1110.636719"/>
       <use xlink:href="#DejaVuSans-63" x="1171.916016"/>
       <use xlink:href="#DejaVuSans-74" x="1226.896484"/>
       <use xlink:href="#DejaVuSans-6f" x="1266.105469"/>
       <use xlink:href="#DejaVuSans-72" x="1327.287109"/>
       <use xlink:href="#DejaVuSans-20" x="1368.400391"/>
       <use xlink:href="#DejaVuSans-32" x="1400.1875"/>
      </g>
     </g>
    </g>
    <g id="ytick_8">
     <g id="line2d_22">
      <g>
       <use xlink:href="#m9f57b7f1a3" x="295.446875" y="359.984125" style="stroke: #000000; stroke-width: 0.8"/>
      </g>
     </g>
     <g id="text_16">
      <!-- Kin of IRRE-like protein 3 -->
      <g transform="translate(164.60625 363.783344) scale(0.1 -0.1)">
       <defs>
        <path id="DejaVuSans-4b" d="M 628 4666 
L 1259 4666 
L 1259 2694 
L 3353 4666 
L 4166 4666 
L 1850 2491 
L 4331 0 
L 3500 0 
L 1259 2247 
L 1259 0 
L 628 0 
L 628 4666 
z
" transform="scale(0.015625)"/>
        <path id="DejaVuSans-52" d="M 2841 2188 
Q 3044 2119 3236 1894 
Q 3428 1669 3622 1275 
L 4263 0 
L 3584 0 
L 2988 1197 
Q 2756 1666 2539 1819 
Q 2322 1972 1947 1972 
L 1259 1972 
L 1259 0 
L 628 0 
L 628 4666 
L 2053 4666 
Q 2853 4666 3247 4331 
Q 3641 3997 3641 3322 
Q 3641 2881 3436 2590 
Q 3231 2300 2841 2188 
z
M 1259 4147 
L 1259 2491 
L 2053 2491 
Q 2509 2491 2742 2702 
Q 2975 2913 2975 3322 
Q 2975 3731 2742 3939 
Q 2509 4147 2053 4147 
L 1259 4147 
z
" transform="scale(0.015625)"/>
       </defs>
       <use xlink:href="#DejaVuSans-4b"/>
       <use xlink:href="#DejaVuSans-69" x="65.576172"/>
       <use xlink:href="#DejaVuSans-6e" x="93.359375"/>
       <use xlink:href="#DejaVuSans-20" x="156.738281"/>
       <use xlink:href="#DejaVuSans-6f" x="188.525391"/>
       <use xlink:href="#DejaVuSans-66" x="249.707031"/>
       <use xlink:href="#DejaVuSans-20" x="284.912109"/>
       <use xlink:href="#DejaVuSans-49" x="316.699219"/>
       <use xlink:href="#DejaVuSans-52" x="346.191406"/>
       <use xlink:href="#DejaVuSans-52" x="415.673828"/>
       <use xlink:href="#DejaVuSans-45" x="485.15625"/>
       <use xlink:href="#DejaVuSans-2d" x="548.339844"/>
       <use xlink:href="#DejaVuSans-6c" x="584.423828"/>
       <use xlink:href="#DejaVuSans-69" x="612.207031"/>
       <use xlink:href="#DejaVuSans-6b" x="639.990234"/>
       <use xlink:href="#DejaVuSans-65" x="694.275391"/>
       <use xlink:href="#DejaVuSans-20" x="755.798828"/>
       <use xlink:href="#DejaVuSans-70" x="787.585938"/>
       <use xlink:href="#DejaVuSans-72" x="851.0625"/>
       <use xlink:href="#DejaVuSans-6f" x="889.925781"/>
       <use xlink:href="#DejaVuSans-74" x="951.107422"/>
       <use xlink:href="#DejaVuSans-65" x="990.316406"/>
       <use xlink:href="#DejaVuSans-69" x="1051.839844"/>
       <use xlink:href="#DejaVuSans-6e" x="1079.623047"/>
       <use xlink:href="#DejaVuSans-20" x="1143.001953"/>
       <use xlink:href="#DejaVuSans-33" x="1174.789062"/>
      </g>
     </g>
    </g>
    <g id="ytick_9">
     <g id="line2d_23">
      <g>
       <use xlink:href="#m9f57b7f1a3" x="295.446875" y="400.420489" style="stroke: #000000; stroke-width: 0.8"/>
      </g>
     </g>
     <g id="text_17">
      <!-- XK-related protein 6 -->
      <g transform="translate(188.853125 404.219707) scale(0.1 -0.1)">
       <defs>
        <path id="DejaVuSans-58" d="M 403 4666 
L 1081 4666 
L 2241 2931 
L 3406 4666 
L 4084 4666 
L 2584 2425 
L 4184 0 
L 3506 0 
L 2194 1984 
L 872 0 
L 191 0 
L 1856 2491 
L 403 4666 
z
" transform="scale(0.015625)"/>
        <path id="DejaVuSans-36" d="M 2113 2584 
Q 1688 2584 1439 2293 
Q 1191 2003 1191 1497 
Q 1191 994 1439 701 
Q 1688 409 2113 409 
Q 2538 409 2786 701 
Q 3034 994 3034 1497 
Q 3034 2003 2786 2293 
Q 2538 2584 2113 2584 
z
M 3366 4563 
L 3366 3988 
Q 3128 4100 2886 4159 
Q 2644 4219 2406 4219 
Q 1781 4219 1451 3797 
Q 1122 3375 1075 2522 
Q 1259 2794 1537 2939 
Q 1816 3084 2150 3084 
Q 2853 3084 3261 2657 
Q 3669 2231 3669 1497 
Q 3669 778 3244 343 
Q 2819 -91 2113 -91 
Q 1303 -91 875 529 
Q 447 1150 447 2328 
Q 447 3434 972 4092 
Q 1497 4750 2381 4750 
Q 2619 4750 2861 4703 
Q 3103 4656 3366 4563 
z
" transform="scale(0.015625)"/>
       </defs>
       <use xlink:href="#DejaVuSans-58"/>
       <use xlink:href="#DejaVuSans-4b" x="68.505859"/>
       <use xlink:href="#DejaVuSans-2d" x="123.582031"/>
       <use xlink:href="#DejaVuSans-72" x="159.666016"/>
       <use xlink:href="#DejaVuSans-65" x="198.529297"/>
       <use xlink:href="#DejaVuSans-6c" x="260.052734"/>
       <use xlink:href="#DejaVuSans-61" x="287.835938"/>
       <use xlink:href="#DejaVuSans-74" x="349.115234"/>
       <use xlink:href="#DejaVuSans-65" x="388.324219"/>
       <use xlink:href="#DejaVuSans-64" x="449.847656"/>
       <use xlink:href="#DejaVuSans-20" x="513.324219"/>
       <use xlink:href="#DejaVuSans-70" x="545.111328"/>
       <use xlink:href="#DejaVuSans-72" x="608.587891"/>
       <use xlink:href="#DejaVuSans-6f" x="647.451172"/>
       <use xlink:href="#DejaVuSans-74" x="708.632812"/>
       <use xlink:href="#DejaVuSans-65" x="747.841797"/>
       <use xlink:href="#DejaVuSans-69" x="809.365234"/>
       <use xlink:href="#DejaVuSans-6e" x="837.148438"/>
       <use xlink:href="#DejaVuSans-20" x="900.527344"/>
       <use xlink:href="#DejaVuSans-36" x="932.314453"/>
      </g>
     </g>
    </g>
    <g id="ytick_10">
     <g id="line2d_24">
      <g>
       <use xlink:href="#m9f57b7f1a3" x="295.446875" y="440.856852" style="stroke: #000000; stroke-width: 0.8"/>
      </g>
     </g>
     <g id="text_18">
      <!-- Mitogen-activated protein kinase kinase kinase kinase 4 -->
      <g transform="translate(7.2 444.656071) scale(0.1 -0.1)">
       <defs>
        <path id="DejaVuSans-4d" d="M 628 4666 
L 1569 4666 
L 2759 1491 
L 3956 4666 
L 4897 4666 
L 4897 0 
L 4281 0 
L 4281 4097 
L 3078 897 
L 2444 897 
L 1241 4097 
L 1241 0 
L 628 0 
L 628 4666 
z
" transform="scale(0.015625)"/>
        <path id="DejaVuSans-76" d="M 191 3500 
L 800 3500 
L 1894 563 
L 2988 3500 
L 3597 3500 
L 2284 0 
L 1503 0 
L 191 3500 
z
" transform="scale(0.015625)"/>
       </defs>
       <use xlink:href="#DejaVuSans-4d"/>
       <use xlink:href="#DejaVuSans-69" x="86.279297"/>
       <use xlink:href="#DejaVuSans-74" x="114.0625"/>
       <use xlink:href="#DejaVuSans-6f" x="153.271484"/>
       <use xlink:href="#DejaVuSans-67" x="214.453125"/>
       <use xlink:href="#DejaVuSans-65" x="277.929688"/>
       <use xlink:href="#DejaVuSans-6e" x="339.453125"/>
       <use xlink:href="#DejaVuSans-2d" x="402.832031"/>
       <use xlink:href="#DejaVuSans-61" x="438.916016"/>
       <use xlink:href="#DejaVuSans-63" x="500.195312"/>
       <use xlink:href="#DejaVuSans-74" x="555.175781"/>
       <use xlink:href="#DejaVuSans-69" x="594.384766"/>
       <use xlink:href="#DejaVuSans-76" x="622.167969"/>
       <use xlink:href="#DejaVuSans-61" x="681.347656"/>
       <use xlink:href="#DejaVuSans-74" x="742.626953"/>
       <use xlink:href="#DejaVuSans-65" x="781.835938"/>
       <use xlink:href="#DejaVuSans-64" x="843.359375"/>
       <use xlink:href="#DejaVuSans-20" x="906.835938"/>
       <use xlink:href="#DejaVuSans-70" x="938.623047"/>
       <use xlink:href="#DejaVuSans-72" x="1002.099609"/>
       <use xlink:href="#DejaVuSans-6f" x="1040.962891"/>
       <use xlink:href="#DejaVuSans-74" x="1102.144531"/>
       <use xlink:href="#DejaVuSans-65" x="1141.353516"/>
       <use xlink:href="#DejaVuSans-69" x="1202.876953"/>
       <use xlink:href="#DejaVuSans-6e" x="1230.660156"/>
       <use xlink:href="#DejaVuSans-20" x="1294.039062"/>
       <use xlink:href="#DejaVuSans-6b" x="1325.826172"/>
       <use xlink:href="#DejaVuSans-69" x="1383.736328"/>
       <use xlink:href="#DejaVuSans-6e" x="1411.519531"/>
       <use xlink:href="#DejaVuSans-61" x="1474.898438"/>
       <use xlink:href="#DejaVuSans-73" x="1536.177734"/>
       <use xlink:href="#DejaVuSans-65" x="1588.277344"/>
       <use xlink:href="#DejaVuSans-20" x="1649.800781"/>
       <use xlink:href="#DejaVuSans-6b" x="1681.587891"/>
       <use xlink:href="#DejaVuSans-69" x="1739.498047"/>
       <use xlink:href="#DejaVuSans-6e" x="1767.28125"/>
       <use xlink:href="#DejaVuSans-61" x="1830.660156"/>
       <use xlink:href="#DejaVuSans-73" x="1891.939453"/>
       <use xlink:href="#DejaVuSans-65" x="1944.039062"/>
       <use xlink:href="#DejaVuSans-20" x="2005.5625"/>
       <use xlink:href="#DejaVuSans-6b" x="2037.349609"/>
       <use xlink:href="#DejaVuSans-69" x="2095.259766"/>
       <use xlink:href="#DejaVuSans-6e" x="2123.042969"/>
       <use xlink:href="#DejaVuSans-61" x="2186.421875"/>
       <use xlink:href="#DejaVuSans-73" x="2247.701172"/>
       <use xlink:href="#DejaVuSans-65" x="2299.800781"/>
       <use xlink:href="#DejaVuSans-20" x="2361.324219"/>
       <use xlink:href="#DejaVuSans-6b" x="2393.111328"/>
       <use xlink:href="#DejaVuSans-69" x="2451.021484"/>
       <use xlink:href="#DejaVuSans-6e" x="2478.804688"/>
       <use xlink:href="#DejaVuSans-61" x="2542.183594"/>
       <use xlink:href="#DejaVuSans-73" x="2603.462891"/>
       <use xlink:href="#DejaVuSans-65" x="2655.5625"/>
       <use xlink:href="#DejaVuSans-20" x="2717.085938"/>
       <use xlink:href="#DejaVuSans-34" x="2748.873047"/>
      </g>
     </g>
    </g>
    <g id="ytick_11">
     <g id="line2d_25">
      <g>
       <use xlink:href="#m9f57b7f1a3" x="295.446875" y="481.293216" style="stroke: #000000; stroke-width: 0.8"/>
      </g>
     </g>
     <g id="text_19">
      <!-- Secernin-3 -->
      <g transform="translate(234.934375 485.092435) scale(0.1 -0.1)">
       <defs>
        <path id="DejaVuSans-53" d="M 3425 4513 
L 3425 3897 
Q 3066 4069 2747 4153 
Q 2428 4238 2131 4238 
Q 1616 4238 1336 4038 
Q 1056 3838 1056 3469 
Q 1056 3159 1242 3001 
Q 1428 2844 1947 2747 
L 2328 2669 
Q 3034 2534 3370 2195 
Q 3706 1856 3706 1288 
Q 3706 609 3251 259 
Q 2797 -91 1919 -91 
Q 1588 -91 1214 -16 
Q 841 59 441 206 
L 441 856 
Q 825 641 1194 531 
Q 1563 422 1919 422 
Q 2459 422 2753 634 
Q 3047 847 3047 1241 
Q 3047 1584 2836 1778 
Q 2625 1972 2144 2069 
L 1759 2144 
Q 1053 2284 737 2584 
Q 422 2884 422 3419 
Q 422 4038 858 4394 
Q 1294 4750 2059 4750 
Q 2388 4750 2728 4690 
Q 3069 4631 3425 4513 
z
" transform="scale(0.015625)"/>
       </defs>
       <use xlink:href="#DejaVuSans-53"/>
       <use xlink:href="#DejaVuSans-65" x="63.476562"/>
       <use xlink:href="#DejaVuSans-63" x="125"/>
       <use xlink:href="#DejaVuSans-65" x="179.980469"/>
       <use xlink:href="#DejaVuSans-72" x="241.503906"/>
       <use xlink:href="#DejaVuSans-6e" x="280.867188"/>
       <use xlink:href="#DejaVuSans-69" x="344.246094"/>
       <use xlink:href="#DejaVuSans-6e" x="372.029297"/>
       <use xlink:href="#DejaVuSans-2d" x="435.408203"/>
       <use xlink:href="#DejaVuSans-33" x="471.492188"/>
      </g>
     </g>
    </g>
    <g id="ytick_12">
     <g id="line2d_26">
      <g>
       <use xlink:href="#m9f57b7f1a3" x="295.446875" y="521.72958" style="stroke: #000000; stroke-width: 0.8"/>
      </g>
     </g>
     <g id="text_20">
      <!-- Protein Wiz -->
      <g transform="translate(232.53125 525.528798) scale(0.1 -0.1)">
       <defs>
        <path id="DejaVuSans-57" d="M 213 4666 
L 850 4666 
L 1831 722 
L 2809 4666 
L 3519 4666 
L 4500 722 
L 5478 4666 
L 6119 4666 
L 4947 0 
L 4153 0 
L 3169 4050 
L 2175 0 
L 1381 0 
L 213 4666 
z
" transform="scale(0.015625)"/>
        <path id="DejaVuSans-7a" d="M 353 3500 
L 3084 3500 
L 3084 2975 
L 922 459 
L 3084 459 
L 3084 0 
L 275 0 
L 275 525 
L 2438 3041 
L 353 3041 
L 353 3500 
z
" transform="scale(0.015625)"/>
       </defs>
       <use xlink:href="#DejaVuSans-50"/>
       <use xlink:href="#DejaVuSans-72" x="58.552734"/>
       <use xlink:href="#DejaVuSans-6f" x="97.416016"/>
       <use xlink:href="#DejaVuSans-74" x="158.597656"/>
       <use xlink:href="#DejaVuSans-65" x="197.806641"/>
       <use xlink:href="#DejaVuSans-69" x="259.330078"/>
       <use xlink:href="#DejaVuSans-6e" x="287.113281"/>
       <use xlink:href="#DejaVuSans-20" x="350.492188"/>
       <use xlink:href="#DejaVuSans-57" x="382.279297"/>
       <use xlink:href="#DejaVuSans-69" x="478.90625"/>
       <use xlink:href="#DejaVuSans-7a" x="506.689453"/>
      </g>
     </g>
    </g>
    <g id="ytick_13">
     <g id="line2d_27">
      <g>
       <use xlink:href="#m9f57b7f1a3" x="295.446875" y="562.165943" style="stroke: #000000; stroke-width: 0.8"/>
      </g>
     </g>
     <g id="text_21">
      <!-- Hepatocyte nuclear factor 1-alpha -->
      <g transform="translate(116.901562 565.965162) scale(0.1 -0.1)">
       <defs>
        <path id="DejaVuSans-68" d="M 3513 2113 
L 3513 0 
L 2938 0 
L 2938 2094 
Q 2938 2591 2744 2837 
Q 2550 3084 2163 3084 
Q 1697 3084 1428 2787 
Q 1159 2491 1159 1978 
L 1159 0 
L 581 0 
L 581 4863 
L 1159 4863 
L 1159 2956 
Q 1366 3272 1645 3428 
Q 1925 3584 2291 3584 
Q 2894 3584 3203 3211 
Q 3513 2838 3513 2113 
z
" transform="scale(0.015625)"/>
       </defs>
       <use xlink:href="#DejaVuSans-48"/>
       <use xlink:href="#DejaVuSans-65" x="75.195312"/>
       <use xlink:href="#DejaVuSans-70" x="136.71875"/>
       <use xlink:href="#DejaVuSans-61" x="200.195312"/>
       <use xlink:href="#DejaVuSans-74" x="261.474609"/>
       <use xlink:href="#DejaVuSans-6f" x="300.683594"/>
       <use xlink:href="#DejaVuSans-63" x="361.865234"/>
       <use xlink:href="#DejaVuSans-79" x="416.845703"/>
       <use xlink:href="#DejaVuSans-74" x="476.025391"/>
       <use xlink:href="#DejaVuSans-65" x="515.234375"/>
       <use xlink:href="#DejaVuSans-20" x="576.757812"/>
       <use xlink:href="#DejaVuSans-6e" x="608.544922"/>
       <use xlink:href="#DejaVuSans-75" x="671.923828"/>
       <use xlink:href="#DejaVuSans-63" x="735.302734"/>
       <use xlink:href="#DejaVuSans-6c" x="790.283203"/>
       <use xlink:href="#DejaVuSans-65" x="818.066406"/>
       <use xlink:href="#DejaVuSans-61" x="879.589844"/>
       <use xlink:href="#DejaVuSans-72" x="940.869141"/>
       <use xlink:href="#DejaVuSans-20" x="981.982422"/>
       <use xlink:href="#DejaVuSans-66" x="1013.769531"/>
       <use xlink:href="#DejaVuSans-61" x="1048.974609"/>
       <use xlink:href="#DejaVuSans-63" x="1110.253906"/>
       <use xlink:href="#DejaVuSans-74" x="1165.234375"/>
       <use xlink:href="#DejaVuSans-6f" x="1204.443359"/>
       <use xlink:href="#DejaVuSans-72" x="1265.625"/>
       <use xlink:href="#DejaVuSans-20" x="1306.738281"/>
       <use xlink:href="#DejaVuSans-31" x="1338.525391"/>
       <use xlink:href="#DejaVuSans-2d" x="1402.148438"/>
       <use xlink:href="#DejaVuSans-61" x="1438.232422"/>
       <use xlink:href="#DejaVuSans-6c" x="1499.511719"/>
       <use xlink:href="#DejaVuSans-70" x="1527.294922"/>
       <use xlink:href="#DejaVuSans-68" x="1590.771484"/>
       <use xlink:href="#DejaVuSans-61" x="1654.150391"/>
      </g>
     </g>
    </g>
    <g id="ytick_14">
     <g id="line2d_28">
      <g>
       <use xlink:href="#m9f57b7f1a3" x="295.446875" y="602.602307" style="stroke: #000000; stroke-width: 0.8"/>
      </g>
     </g>
     <g id="text_22">
      <!-- Synphilin-1 -->
      <g transform="translate(232.514062 606.401526) scale(0.1 -0.1)">
       <use xlink:href="#DejaVuSans-53"/>
       <use xlink:href="#DejaVuSans-79" x="63.476562"/>
       <use xlink:href="#DejaVuSans-6e" x="122.65625"/>
       <use xlink:href="#DejaVuSans-70" x="186.035156"/>
       <use xlink:href="#DejaVuSans-68" x="249.511719"/>
       <use xlink:href="#DejaVuSans-69" x="312.890625"/>
       <use xlink:href="#DejaVuSans-6c" x="340.673828"/>
       <use xlink:href="#DejaVuSans-69" x="368.457031"/>
       <use xlink:href="#DejaVuSans-6e" x="396.240234"/>
       <use xlink:href="#DejaVuSans-2d" x="459.619141"/>
       <use xlink:href="#DejaVuSans-31" x="495.703125"/>
      </g>
     </g>
    </g>
    <g id="ytick_15">
     <g id="line2d_29">
      <g>
       <use xlink:href="#m9f57b7f1a3" x="295.446875" y="643.03867" style="stroke: #000000; stroke-width: 0.8"/>
      </g>
     </g>
     <g id="text_23">
      <!-- Cytospin-A -->
      <g transform="translate(234.609375 646.837889) scale(0.1 -0.1)">
       <use xlink:href="#DejaVuSans-43"/>
       <use xlink:href="#DejaVuSans-79" x="69.824219"/>
       <use xlink:href="#DejaVuSans-74" x="129.003906"/>
       <use xlink:href="#DejaVuSans-6f" x="168.212891"/>
       <use xlink:href="#DejaVuSans-73" x="229.394531"/>
       <use xlink:href="#DejaVuSans-70" x="281.494141"/>
       <use xlink:href="#DejaVuSans-69" x="344.970703"/>
       <use xlink:href="#DejaVuSans-6e" x="372.753906"/>
       <use xlink:href="#DejaVuSans-2d" x="436.132812"/>
       <use xlink:href="#DejaVuSans-41" x="469.966797"/>
      </g>
     </g>
    </g>
   </g>
   <g id="LineCollection_1">
    <path d="M 671.068496 76.92958 
L 824.32233 76.92958 
" clip-path="url(#p08afb28026)" style="fill: none; stroke: #f39c12; stroke-width: 2"/>
   </g>
   <g id="line2d_30">
    <defs>
     <path id="m90e06752ea" d="M 0 5 
L 0 -5 
" style="stroke: #f39c12; stroke-width: 2"/>
    </defs>
    <g clip-path="url(#p08afb28026)">
     <use xlink:href="#m90e06752ea" x="671.068496" y="76.92958" style="fill: #f39c12; stroke: #f39c12; stroke-width: 2"/>
    </g>
   </g>
   <g id="line2d_31">
    <g clip-path="url(#p08afb28026)">
     <use xlink:href="#m90e06752ea" x="824.32233" y="76.92958" style="fill: #f39c12; stroke: #f39c12; stroke-width: 2"/>
    </g>
   </g>
   <g id="LineCollection_2">
    <path d="M 609.016786 117.365943 
L 738.050449 117.365943 
" clip-path="url(#p08afb28026)" style="fill: none; stroke: #3498db; stroke-width: 2"/>
   </g>
   <g id="line2d_32">
    <defs>
     <path id="m0b614dbb5b" d="M 0 5 
L 0 -5 
" style="stroke: #3498db; stroke-width: 2"/>
    </defs>
    <g clip-path="url(#p08afb28026)">
     <use xlink:href="#m0b614dbb5b" x="609.016786" y="117.365943" style="fill: #3498db; stroke: #3498db; stroke-width: 2"/>
    </g>
   </g>
   <g id="line2d_33">
    <g clip-path="url(#p08afb28026)">
     <use xlink:href="#m0b614dbb5b" x="738.050449" y="117.365943" style="fill: #3498db; stroke: #3498db; stroke-width: 2"/>
    </g>
   </g>
   <g id="LineCollection_3">
    <path d="M 587.122825 157.802307 
L 707.760401 157.802307 
" clip-path="url(#p08afb28026)" style="fill: none; stroke: #f39c12; stroke-width: 2"/>
   </g>
   <g id="line2d_34">
    <g clip-path="url(#p08afb28026)">
     <use xlink:href="#m90e06752ea" x="587.122825" y="157.802307" style="fill: #f39c12; stroke: #f39c12; stroke-width: 2"/>
    </g>
   </g>
   <g id="line2d_35">
    <g clip-path="url(#p08afb28026)">
     <use xlink:href="#m90e06752ea" x="707.760401" y="157.802307" style="fill: #f39c12; stroke: #f39c12; stroke-width: 2"/>
    </g>
   </g>
   <g id="LineCollection_4">
    <path d="M 440.935083 198.23867 
L 509.941396 198.23867 
" clip-path="url(#p08afb28026)" style="fill: none; stroke: #f39c12; stroke-width: 2"/>
   </g>
   <g id="line2d_36">
    <g clip-path="url(#p08afb28026)">
     <use xlink:href="#m90e06752ea" x="440.935083" y="198.23867" style="fill: #f39c12; stroke: #f39c12; stroke-width: 2"/>
    </g>
   </g>
   <g id="line2d_37">
    <g clip-path="url(#p08afb28026)">
     <use xlink:href="#m90e06752ea" x="509.941396" y="198.23867" style="fill: #f39c12; stroke: #f39c12; stroke-width: 2"/>
    </g>
   </g>
   <g id="LineCollection_5">
    <path d="M 423.671922 238.675034 
L 487.570843 238.675034 
" clip-path="url(#p08afb28026)" style="fill: none; stroke: #f39c12; stroke-width: 2"/>
   </g>
   <g id="line2d_38">
    <g clip-path="url(#p08afb28026)">
     <use xlink:href="#m90e06752ea" x="423.671922" y="238.675034" style="fill: #f39c12; stroke: #f39c12; stroke-width: 2"/>
    </g>
   </g>
   <g id="line2d_39">
    <g clip-path="url(#p08afb28026)">
     <use xlink:href="#m90e06752ea" x="487.570843" y="238.675034" style="fill: #f39c12; stroke: #f39c12; stroke-width: 2"/>
    </g>
   </g>
   <g id="LineCollection_6">
    <path d="M 406.085696 279.111398 
L 465.182876 279.111398 
" clip-path="url(#p08afb28026)" style="fill: none; stroke: #3498db; stroke-width: 2"/>
   </g>
   <g id="line2d_40">
    <g clip-path="url(#p08afb28026)">
     <use xlink:href="#m0b614dbb5b" x="406.085696" y="279.111398" style="fill: #3498db; stroke: #3498db; stroke-width: 2"/>
    </g>
   </g>
   <g id="line2d_41">
    <g clip-path="url(#p08afb28026)">
     <use xlink:href="#m0b614dbb5b" x="465.182876" y="279.111398" style="fill: #3498db; stroke: #3498db; stroke-width: 2"/>
    </g>
   </g>
   <g id="LineCollection_7">
    <path d="M 396.675602 319.547761 
L 453.400112 319.547761 
" clip-path="url(#p08afb28026)" style="fill: none; stroke: #e74c3c; stroke-width: 2"/>
   </g>
   <g id="line2d_42">
    <defs>
     <path id="mbd2bfeacdc" d="M 0 5 
L 0 -5 
" style="stroke: #e74c3c; stroke-width: 2"/>
    </defs>
    <g clip-path="url(#p08afb28026)">
     <use xlink:href="#mbd2bfeacdc" x="396.675602" y="319.547761" style="fill: #e74c3c; stroke: #e74c3c; stroke-width: 2"/>
    </g>
   </g>
   <g id="line2d_43">
    <g clip-path="url(#p08afb28026)">
     <use xlink:href="#mbd2bfeacdc" x="453.400112" y="319.547761" style="fill: #e74c3c; stroke: #e74c3c; stroke-width: 2"/>
    </g>
   </g>
   <g id="LineCollection_8">
    <path d="M 381.565442 359.984125 
L 434.813761 359.984125 
" clip-path="url(#p08afb28026)" style="fill: none; stroke: #3498db; stroke-width: 2"/>
   </g>
   <g id="line2d_44">
    <g clip-path="url(#p08afb28026)">
     <use xlink:href="#m0b614dbb5b" x="381.565442" y="359.984125" style="fill: #3498db; stroke: #3498db; stroke-width: 2"/>
    </g>
   </g>
   <g id="line2d_45">
    <g clip-path="url(#p08afb28026)">
     <use xlink:href="#m0b614dbb5b" x="434.813761" y="359.984125" style="fill: #3498db; stroke: #3498db; stroke-width: 2"/>
    </g>
   </g>
   <g id="LineCollection_9">
    <path d="M 381.565442 400.420489 
L 434.813761 400.420489 
" clip-path="url(#p08afb28026)" style="fill: none; stroke: #3498db; stroke-width: 2"/>
   </g>
   <g id="line2d_46">
    <g clip-path="url(#p08afb28026)">
     <use xlink:href="#m0b614dbb5b" x="381.565442" y="400.420489" style="fill: #3498db; stroke: #3498db; stroke-width: 2"/>
    </g>
   </g>
   <g id="line2d_47">
    <g clip-path="url(#p08afb28026)">
     <use xlink:href="#m0b614dbb5b" x="434.813761" y="400.420489" style="fill: #3498db; stroke: #3498db; stroke-width: 2"/>
    </g>
   </g>
   <g id="LineCollection_10">
    <path d="M 381.565442 440.856852 
L 434.813761 440.856852 
" clip-path="url(#p08afb28026)" style="fill: none; stroke: #3498db; stroke-width: 2"/>
   </g>
   <g id="line2d_48">
    <g clip-path="url(#p08afb28026)">
     <use xlink:href="#m0b614dbb5b" x="381.565442" y="440.856852" style="fill: #3498db; stroke: #3498db; stroke-width: 2"/>
    </g>
   </g>
   <g id="line2d_49">
    <g clip-path="url(#p08afb28026)">
     <use xlink:href="#m0b614dbb5b" x="434.813761" y="440.856852" style="fill: #3498db; stroke: #3498db; stroke-width: 2"/>
    </g>
   </g>
   <g id="LineCollection_11">
    <path d="M 381.565442 481.293216 
L 434.813761 481.293216 
" clip-path="url(#p08afb28026)" style="fill: none; stroke: #3498db; stroke-width: 2"/>
   </g>
   <g id="line2d_50">
    <g clip-path="url(#p08afb28026)">
     <use xlink:href="#m0b614dbb5b" x="381.565442" y="481.293216" style="fill: #3498db; stroke: #3498db; stroke-width: 2"/>
    </g>
   </g>
   <g id="line2d_51">
    <g clip-path="url(#p08afb28026)">
     <use xlink:href="#m0b614dbb5b" x="434.813761" y="481.293216" style="fill: #3498db; stroke: #3498db; stroke-width: 2"/>
    </g>
   </g>
   <g id="LineCollection_12">
    <path d="M 381.565442 521.72958 
L 434.813761 521.72958 
" clip-path="url(#p08afb28026)" style="fill: none; stroke: #3498db; stroke-width: 2"/>
   </g>
   <g id="line2d_52">
    <g clip-path="url(#p08afb28026)">
     <use xlink:href="#m0b614dbb5b" x="381.565442" y="521.72958" style="fill: #3498db; stroke: #3498db; stroke-width: 2"/>
    </g>
   </g>
   <g id="line2d_53">
    <g clip-path="url(#p08afb28026)">
     <use xlink:href="#m0b614dbb5b" x="434.813761" y="521.72958" style="fill: #3498db; stroke: #3498db; stroke-width: 2"/>
    </g>
   </g>
   <g id="LineCollection_13">
    <path d="M 378.272272 562.165943 
L 430.822884 562.165943 
" clip-path="url(#p08afb28026)" style="fill: none; stroke: #3498db; stroke-width: 2"/>
   </g>
   <g id="line2d_54">
    <g clip-path="url(#p08afb28026)">
     <use xlink:href="#m0b614dbb5b" x="378.272272" y="562.165943" style="fill: #3498db; stroke: #3498db; stroke-width: 2"/>
    </g>
   </g>
   <g id="line2d_55">
    <g clip-path="url(#p08afb28026)">
     <use xlink:href="#m0b614dbb5b" x="430.822884" y="562.165943" style="fill: #3498db; stroke: #3498db; stroke-width: 2"/>
    </g>
   </g>
   <g id="LineCollection_14">
    <path d="M 371.572656 602.602307 
L 422.775389 602.602307 
" clip-path="url(#p08afb28026)" style="fill: none; stroke: #f39c12; stroke-width: 2"/>
   </g>
   <g id="line2d_56">
    <g clip-path="url(#p08afb28026)">
     <use xlink:href="#m90e06752ea" x="371.572656" y="602.602307" style="fill: #f39c12; stroke: #f39c12; stroke-width: 2"/>
    </g>
   </g>
   <g id="line2d_57">
    <g clip-path="url(#p08afb28026)">
     <use xlink:href="#m90e06752ea" x="422.775389" y="602.602307" style="fill: #f39c12; stroke: #f39c12; stroke-width: 2"/>
    </g>
   </g>
   <g id="LineCollection_15">
    <path d="M 359.577636 643.03867 
L 408.622039 643.03867 
" clip-path="url(#p08afb28026)" style="fill: none; stroke: #3498db; stroke-width: 2"/>
   </g>
   <g id="line2d_58">
    <g clip-path="url(#p08afb28026)">
     <use xlink:href="#m0b614dbb5b" x="359.577636" y="643.03867" style="fill: #3498db; stroke: #3498db; stroke-width: 2"/>
    </g>
   </g>
   <g id="line2d_59">
    <g clip-path="url(#p08afb28026)">
     <use xlink:href="#m0b614dbb5b" x="408.622039" y="643.03867" style="fill: #3498db; stroke: #3498db; stroke-width: 2"/>
    </g>
   </g>
   <g id="line2d_60">
    <path d="M 320.63142 671.344125 
L 320.63142 48.624125 
" clip-path="url(#p08afb28026)" style="fill: none; stroke: #7f8c8d; stroke-opacity: 0.7; stroke-width: 1.5; stroke-linecap: square"/>
   </g>
   <g id="line2d_61">
    <path d="M 333.111905 671.344125 
L 333.111905 48.624125 
" clip-path="url(#p08afb28026)" style="fill: none; stroke-dasharray: 5.55,2.4; stroke-dashoffset: 0; stroke: #27ae60; stroke-opacity: 0.5; stroke-width: 1.5"/>
   </g>
   <g id="line2d_62">
    <path d="M 339.352147 671.344125 
L 339.352147 48.624125 
" clip-path="url(#p08afb28026)" style="fill: none; stroke-dasharray: 5.55,2.4; stroke-dashoffset: 0; stroke: #8e44ad; stroke-opacity: 0.5; stroke-width: 1.5"/>
   </g>
   <g id="line2d_63">
    <defs>
     <path id="m88319a06d8" d="M 0 5 
C 1.326016 5 2.597899 4.473168 3.535534 3.535534 
C 4.473168 2.597899 5 1.326016 5 0 
C 5 -1.326016 4.473168 -2.597899 3.535534 -3.535534 
C 2.597899 -4.473168 1.326016 -5 0 -5 
C -1.326016 -5 -2.597899 -4.473168 -3.535534 -3.535534 
C -4.473168 -2.597899 -5 -1.326016 -5 0 
C -5 1.326016 -4.473168 2.597899 -3.535534 3.535534 
C -2.597899 4.473168 -1.326016 5 0 5 
z
" style="stroke: #f39c12"/>
    </defs>
    <g clip-path="url(#p08afb28026)">
     <use xlink:href="#m88319a06d8" x="747.695413" y="76.92958" style="fill: #f39c12; stroke: #f39c12"/>
    </g>
   </g>
   <g id="line2d_64">
    <defs>
     <path id="m7ae1d5d74c" d="M 0 5 
C 1.326016 5 2.597899 4.473168 3.535534 3.535534 
C 4.473168 2.597899 5 1.326016 5 0 
C 5 -1.326016 4.473168 -2.597899 3.535534 -3.535534 
C 2.597899 -4.473168 1.326016 -5 0 -5 
C -1.326016 -5 -2.597899 -4.473168 -3.535534 -3.535534 
C -4.473168 -2.597899 -5 -1.326016 -5 0 
C -5 1.326016 -4.473168 2.597899 -3.535534 3.535534 
C -2.597899 4.473168 -1.326016 5 0 5 
z
" style="stroke: #3498db"/>
    </defs>
    <g clip-path="url(#p08afb28026)">
     <use xlink:href="#m7ae1d5d74c" x="673.533617" y="117.365943" style="fill: #3498db; stroke: #3498db"/>
    </g>
   </g>
   <g id="line2d_65">
    <g clip-path="url(#p08afb28026)">
     <use xlink:href="#m88319a06d8" x="647.441613" y="157.802307" style="fill: #f39c12; stroke: #f39c12"/>
    </g>
   </g>
   <g id="line2d_66">
    <g clip-path="url(#p08afb28026)">
     <use xlink:href="#m88319a06d8" x="475.43824" y="198.23867" style="fill: #f39c12; stroke: #f39c12"/>
    </g>
   </g>
   <g id="line2d_67">
    <g clip-path="url(#p08afb28026)">
     <use xlink:href="#m88319a06d8" x="455.621383" y="238.675034" style="fill: #f39c12; stroke: #f39c12"/>
    </g>
   </g>
   <g id="line2d_68">
    <g clip-path="url(#p08afb28026)">
     <use xlink:href="#m7ae1d5d74c" x="435.634286" y="279.111398" style="fill: #3498db; stroke: #3498db"/>
    </g>
   </g>
   <g id="line2d_69">
    <defs>
     <path id="m423a86d631" d="M 0 5 
C 1.326016 5 2.597899 4.473168 3.535534 3.535534 
C 4.473168 2.597899 5 1.326016 5 0 
C 5 -1.326016 4.473168 -2.597899 3.535534 -3.535534 
C 2.597899 -4.473168 1.326016 -5 0 -5 
C -1.326016 -5 -2.597899 -4.473168 -3.535534 -3.535534 
C -4.473168 -2.597899 -5 -1.326016 -5 0 
C -5 1.326016 -4.473168 2.597899 -3.535534 3.535534 
C -2.597899 4.473168 -1.326016 5 0 5 
z
" style="stroke: #e74c3c"/>
    </defs>
    <g clip-path="url(#p08afb28026)">
     <use xlink:href="#m423a86d631" x="425.037857" y="319.547761" style="fill: #e74c3c; stroke: #e74c3c"/>
    </g>
   </g>
   <g id="line2d_70">
    <g clip-path="url(#p08afb28026)">
     <use xlink:href="#m7ae1d5d74c" x="408.189601" y="359.984125" style="fill: #3498db; stroke: #3498db"/>
    </g>
   </g>
   <g id="line2d_71">
    <g clip-path="url(#p08afb28026)">
     <use xlink:href="#m7ae1d5d74c" x="408.189601" y="400.420489" style="fill: #3498db; stroke: #3498db"/>
    </g>
   </g>
   <g id="line2d_72">
    <g clip-path="url(#p08afb28026)">
     <use xlink:href="#m7ae1d5d74c" x="408.189601" y="440.856852" style="fill: #3498db; stroke: #3498db"/>
    </g>
   </g>
   <g id="line2d_73">
    <g clip-path="url(#p08afb28026)">
     <use xlink:href="#m7ae1d5d74c" x="408.189601" y="481.293216" style="fill: #3498db; stroke: #3498db"/>
    </g>
   </g>
   <g id="line2d_74">
    <g clip-path="url(#p08afb28026)">
     <use xlink:href="#m7ae1d5d74c" x="408.189601" y="521.72958" style="fill: #3498db; stroke: #3498db"/>
    </g>
   </g>
   <g id="line2d_75">
    <g clip-path="url(#p08afb28026)">
     <use xlink:href="#m7ae1d5d74c" x="404.547578" y="562.165943" style="fill: #3498db; stroke: #3498db"/>
    </g>
   </g>
   <g id="line2d_76">
    <g clip-path="url(#p08afb28026)">
     <use xlink:href="#m88319a06d8" x="397.174022" y="602.602307" style="fill: #f39c12; stroke: #f39c12"/>
    </g>
   </g>
   <g id="line2d_77">
    <g clip-path="url(#p08afb28026)">
     <use xlink:href="#m7ae1d5d74c" x="384.099838" y="643.03867" style="fill: #3498db; stroke: #3498db"/>
    </g>
   </g>
   <g id="patch_3">
    <path d="M 295.446875 671.344125 
L 295.446875 48.624125 
" style="fill: none; stroke: #000000; stroke-width: 0.8; stroke-linejoin: miter; stroke-linecap: square"/>
   </g>
   <g id="patch_4">
    <path d="M 295.446875 671.344125 
L 849.506875 671.344125 
" style="fill: none; stroke: #000000; stroke-width: 0.8; stroke-linejoin: miter; stroke-linecap: square"/>
   </g>
   <g id="text_24">
    <!-- Effect Size Analysis: Top 15 Enriched Peptides -->
    <g style="fill: #1a252f" transform="translate(390.383906 17.837812) scale(0.14 -0.14)">
     <defs>
      <path id="DejaVuSans-Bold-41" d="M 3419 850 
L 1538 850 
L 1241 0 
L 31 0 
L 1759 4666 
L 3194 4666 
L 4922 0 
L 3713 0 
L 3419 850 
z
M 1838 1716 
L 3116 1716 
L 2478 3572 
L 1838 1716 
z
" transform="scale(0.015625)"/>
      <path id="DejaVuSans-Bold-61" d="M 2106 1575 
Q 1756 1575 1579 1456 
Q 1403 1338 1403 1106 
Q 1403 894 1545 773 
Q 1688 653 1941 653 
Q 2256 653 2472 879 
Q 2688 1106 2688 1447 
L 2688 1575 
L 2106 1575 
z
M 3816 1997 
L 3816 0 
L 2688 0 
L 2688 519 
Q 2463 200 2181 54 
Q 1900 -91 1497 -91 
Q 953 -91 614 226 
Q 275 544 275 1050 
Q 275 1666 698 1953 
Q 1122 2241 2028 2241 
L 2688 2241 
L 2688 2328 
Q 2688 2594 2478 2717 
Q 2269 2841 1825 2841 
Q 1466 2841 1156 2769 
Q 847 2697 581 2553 
L 581 3406 
Q 941 3494 1303 3539 
Q 1666 3584 2028 3584 
Q 2975 3584 3395 3211 
Q 3816 2838 3816 1997 
z
" transform="scale(0.015625)"/>
      <path id="DejaVuSans-Bold-6c" d="M 538 4863 
L 1656 4863 
L 1656 0 
L 538 0 
L 538 4863 
z
" transform="scale(0.015625)"/>
      <path id="DejaVuSans-Bold-79" d="M 78 3500 
L 1197 3500 
L 2138 1125 
L 2938 3500 
L 4056 3500 
L 2584 -331 
Q 2363 -916 2067 -1148 
Q 1772 -1381 1288 -1381 
L 641 -1381 
L 641 -647 
L 991 -647 
Q 1275 -647 1404 -556 
Q 1534 -466 1606 -231 
L 1638 -134 
L 78 3500 
z
" transform="scale(0.015625)"/>
      <path id="DejaVuSans-Bold-3a" d="M 716 3500 
L 1844 3500 
L 1844 2291 
L 716 2291 
L 716 3500 
z
M 716 1209 
L 1844 1209 
L 1844 0 
L 716 0 
L 716 1209 
z
" transform="scale(0.015625)"/>
      <path id="DejaVuSans-Bold-54" d="M 31 4666 
L 4331 4666 
L 4331 3756 
L 2784 3756 
L 2784 0 
L 1581 0 
L 1581 3756 
L 31 3756 
L 31 4666 
z
" transform="scale(0.015625)"/>
      <path id="DejaVuSans-Bold-70" d="M 1656 506 
L 1656 -1331 
L 538 -1331 
L 538 3500 
L 1656 3500 
L 1656 2988 
Q 1888 3294 2169 3439 
Q 2450 3584 2816 3584 
Q 3463 3584 3878 3070 
Q 4294 2556 4294 1747 
Q 4294 938 3878 423 
Q 3463 -91 2816 -91 
Q 2450 -91 2169 54 
Q 1888 200 1656 506 
z
M 2400 2772 
Q 2041 2772 1848 2508 
Q 1656 2244 1656 1747 
Q 1656 1250 1848 986 
Q 2041 722 2400 722 
Q 2759 722 2948 984 
Q 3138 1247 3138 1747 
Q 3138 2247 2948 2509 
Q 2759 2772 2400 2772 
z
" transform="scale(0.015625)"/>
      <path id="DejaVuSans-Bold-31" d="M 750 831 
L 1813 831 
L 1813 3847 
L 722 3622 
L 722 4441 
L 1806 4666 
L 2950 4666 
L 2950 831 
L 4013 831 
L 4013 0 
L 750 0 
L 750 831 
z
" transform="scale(0.015625)"/>
      <path id="DejaVuSans-Bold-35" d="M 678 4666 
L 3669 4666 
L 3669 3781 
L 1638 3781 
L 1638 3059 
Q 1775 3097 1914 3117 
Q 2053 3138 2203 3138 
Q 3056 3138 3531 2711 
Q 4006 2284 4006 1522 
Q 4006 766 3489 337 
Q 2972 -91 2053 -91 
Q 1656 -91 1267 -14 
Q 878 63 494 219 
L 494 1166 
Q 875 947 1217 837 
Q 1559 728 1863 728 
Q 2300 728 2551 942 
Q 2803 1156 2803 1522 
Q 2803 1891 2551 2103 
Q 2300 2316 1863 2316 
Q 1603 2316 1309 2248 
Q 1016 2181 678 2041 
L 678 4666 
z
" transform="scale(0.015625)"/>
      <path id="DejaVuSans-Bold-72" d="M 3138 2547 
Q 2991 2616 2845 2648 
Q 2700 2681 2553 2681 
Q 2122 2681 1889 2404 
Q 1656 2128 1656 1613 
L 1656 0 
L 538 0 
L 538 3500 
L 1656 3500 
L 1656 2925 
Q 1872 3269 2151 3426 
Q 2431 3584 2822 3584 
Q 2878 3584 2943 3579 
Q 3009 3575 3134 3559 
L 3138 2547 
z
" transform="scale(0.015625)"/>
      <path id="DejaVuSans-Bold-50" d="M 588 4666 
L 2584 4666 
Q 3475 4666 3951 4270 
Q 4428 3875 4428 3144 
Q 4428 2409 3951 2014 
Q 3475 1619 2584 1619 
L 1791 1619 
L 1791 0 
L 588 0 
L 588 4666 
z
M 1791 3794 
L 1791 2491 
L 2456 2491 
Q 2806 2491 2997 2661 
Q 3188 2831 3188 3144 
Q 3188 3456 2997 3625 
Q 2806 3794 2456 3794 
L 1791 3794 
z
" transform="scale(0.015625)"/>
     </defs>
     <use xlink:href="#DejaVuSans-Bold-45"/>
     <use xlink:href="#DejaVuSans-Bold-66" x="68.310547"/>
     <use xlink:href="#DejaVuSans-Bold-66" x="111.816406"/>
     <use xlink:href="#DejaVuSans-Bold-65" x="155.322266"/>
     <use xlink:href="#DejaVuSans-Bold-63" x="223.144531"/>
     <use xlink:href="#DejaVuSans-Bold-74" x="282.421875"/>
     <use xlink:href="#DejaVuSans-Bold-20" x="330.224609"/>
     <use xlink:href="#DejaVuSans-Bold-53" x="365.039062"/>
     <use xlink:href="#DejaVuSans-Bold-69" x="437.060547"/>
     <use xlink:href="#DejaVuSans-Bold-7a" x="471.337891"/>
     <use xlink:href="#DejaVuSans-Bold-65" x="529.541016"/>
     <use xlink:href="#DejaVuSans-Bold-20" x="597.363281"/>
     <use xlink:href="#DejaVuSans-Bold-41" x="632.177734"/>
     <use xlink:href="#DejaVuSans-Bold-6e" x="709.570312"/>
     <use xlink:href="#DejaVuSans-Bold-61" x="780.761719"/>
     <use xlink:href="#DejaVuSans-Bold-6c" x="848.242188"/>
     <use xlink:href="#DejaVuSans-Bold-79" x="882.519531"/>
     <use xlink:href="#DejaVuSans-Bold-73" x="947.705078"/>
     <use xlink:href="#DejaVuSans-Bold-69" x="1007.226562"/>
     <use xlink:href="#DejaVuSans-Bold-73" x="1041.503906"/>
     <use xlink:href="#DejaVuSans-Bold-3a" x="1101.025391"/>
     <use xlink:href="#DejaVuSans-Bold-20" x="1141.015625"/>
     <use xlink:href="#DejaVuSans-Bold-54" x="1175.830078"/>
     <use xlink:href="#DejaVuSans-Bold-6f" x="1230.792969"/>
     <use xlink:href="#DejaVuSans-Bold-70" x="1299.494141"/>
     <use xlink:href="#DejaVuSans-Bold-20" x="1371.076172"/>
     <use xlink:href="#DejaVuSans-Bold-31" x="1405.890625"/>
     <use xlink:href="#DejaVuSans-Bold-35" x="1475.470703"/>
     <use xlink:href="#DejaVuSans-Bold-20" x="1545.050781"/>
     <use xlink:href="#DejaVuSans-Bold-45" x="1579.865234"/>
     <use xlink:href="#DejaVuSans-Bold-6e" x="1648.175781"/>
     <use xlink:href="#DejaVuSans-Bold-72" x="1719.367188"/>
     <use xlink:href="#DejaVuSans-Bold-69" x="1768.683594"/>
     <use xlink:href="#DejaVuSans-Bold-63" x="1802.960938"/>
     <use xlink:href="#DejaVuSans-Bold-68" x="1862.238281"/>
     <use xlink:href="#DejaVuSans-Bold-65" x="1933.429688"/>
     <use xlink:href="#DejaVuSans-Bold-64" x="2001.251953"/>
     <use xlink:href="#DejaVuSans-Bold-20" x="2072.833984"/>
     <use xlink:href="#DejaVuSans-Bold-50" x="2107.648438"/>
     <use xlink:href="#DejaVuSans-Bold-65" x="2180.939453"/>
     <use xlink:href="#DejaVuSans-Bold-70" x="2248.761719"/>
     <use xlink:href="#DejaVuSans-Bold-74" x="2320.34375"/>
     <use xlink:href="#DejaVuSans-Bold-69" x="2368.146484"/>
     <use xlink:href="#DejaVuSans-Bold-64" x="2402.423828"/>
     <use xlink:href="#DejaVuSans-Bold-65" x="2474.005859"/>
     <use xlink:href="#DejaVuSans-Bold-73" x="2541.828125"/>
    </g>
    <!-- (with 95% Confidence Intervals) -->
    <g style="fill: #1a252f" transform="translate(445.817344 33.624125) scale(0.14 -0.14)">
     <defs>
      <path id="DejaVuSans-Bold-77" d="M 225 3500 
L 1313 3500 
L 1900 1088 
L 2491 3500 
L 3425 3500 
L 4013 1113 
L 4603 3500 
L 5691 3500 
L 4769 0 
L 3547 0 
L 2956 2406 
L 2369 0 
L 1147 0 
L 225 3500 
z
" transform="scale(0.015625)"/>
      <path id="DejaVuSans-Bold-39" d="M 641 103 
L 641 966 
Q 928 831 1190 764 
Q 1453 697 1709 697 
Q 2247 697 2547 995 
Q 2847 1294 2900 1881 
Q 2688 1725 2447 1647 
Q 2206 1569 1925 1569 
Q 1209 1569 770 1986 
Q 331 2403 331 3084 
Q 331 3838 820 4291 
Q 1309 4744 2131 4744 
Q 3044 4744 3544 4128 
Q 4044 3513 4044 2388 
Q 4044 1231 3459 570 
Q 2875 -91 1856 -91 
Q 1528 -91 1228 -42 
Q 928 6 641 103 
z
M 2125 2350 
Q 2441 2350 2600 2554 
Q 2759 2759 2759 3169 
Q 2759 3575 2600 3781 
Q 2441 3988 2125 3988 
Q 1809 3988 1650 3781 
Q 1491 3575 1491 3169 
Q 1491 2759 1650 2554 
Q 1809 2350 2125 2350 
z
" transform="scale(0.015625)"/>
      <path id="DejaVuSans-Bold-25" d="M 4959 1925 
Q 4738 1925 4616 1733 
Q 4494 1541 4494 1184 
Q 4494 825 4614 633 
Q 4734 441 4959 441 
Q 5184 441 5303 633 
Q 5422 825 5422 1184 
Q 5422 1541 5301 1733 
Q 5181 1925 4959 1925 
z
M 4959 2450 
Q 5541 2450 5875 2112 
Q 6209 1775 6209 1184 
Q 6209 594 5875 251 
Q 5541 -91 4959 -91 
Q 4378 -91 4042 251 
Q 3706 594 3706 1184 
Q 3706 1772 4042 2111 
Q 4378 2450 4959 2450 
z
M 2094 -91 
L 1403 -91 
L 4319 4750 
L 5013 4750 
L 2094 -91 
z
M 1453 4750 
Q 2034 4750 2367 4411 
Q 2700 4072 2700 3481 
Q 2700 2891 2367 2550 
Q 2034 2209 1453 2209 
Q 872 2209 539 2550 
Q 206 2891 206 3481 
Q 206 4072 539 4411 
Q 872 4750 1453 4750 
z
M 1453 4225 
Q 1228 4225 1106 4031 
Q 984 3838 984 3481 
Q 984 3122 1106 2926 
Q 1228 2731 1453 2731 
Q 1678 2731 1798 2926 
Q 1919 3122 1919 3481 
Q 1919 3838 1797 4031 
Q 1675 4225 1453 4225 
z
" transform="scale(0.015625)"/>
      <path id="DejaVuSans-Bold-49" d="M 588 4666 
L 1791 4666 
L 1791 0 
L 588 0 
L 588 4666 
z
" transform="scale(0.015625)"/>
      <path id="DejaVuSans-Bold-76" d="M 97 3500 
L 1216 3500 
L 2088 1081 
L 2956 3500 
L 4078 3500 
L 2700 0 
L 1472 0 
L 97 3500 
z
" transform="scale(0.015625)"/>
     </defs>
     <use xlink:href="#DejaVuSans-Bold-28"/>
     <use xlink:href="#DejaVuSans-Bold-77" x="45.703125"/>
     <use xlink:href="#DejaVuSans-Bold-69" x="138.085938"/>
     <use xlink:href="#DejaVuSans-Bold-74" x="172.363281"/>
     <use xlink:href="#DejaVuSans-Bold-68" x="220.166016"/>
     <use xlink:href="#DejaVuSans-Bold-20" x="291.357422"/>
     <use xlink:href="#DejaVuSans-Bold-39" x="326.171875"/>
     <use xlink:href="#DejaVuSans-Bold-35" x="395.751953"/>
     <use xlink:href="#DejaVuSans-Bold-25" x="465.332031"/>
     <use xlink:href="#DejaVuSans-Bold-20" x="565.527344"/>
     <use xlink:href="#DejaVuSans-Bold-43" x="600.341797"/>
     <use xlink:href="#DejaVuSans-Bold-6f" x="673.730469"/>
     <use xlink:href="#DejaVuSans-Bold-6e" x="742.431641"/>
     <use xlink:href="#DejaVuSans-Bold-66" x="813.623047"/>
     <use xlink:href="#DejaVuSans-Bold-69" x="857.128906"/>
     <use xlink:href="#DejaVuSans-Bold-64" x="891.40625"/>
     <use xlink:href="#DejaVuSans-Bold-65" x="962.988281"/>
     <use xlink:href="#DejaVuSans-Bold-6e" x="1030.810547"/>
     <use xlink:href="#DejaVuSans-Bold-63" x="1102.001953"/>
     <use xlink:href="#DejaVuSans-Bold-65" x="1161.279297"/>
     <use xlink:href="#DejaVuSans-Bold-20" x="1229.101562"/>
     <use xlink:href="#DejaVuSans-Bold-49" x="1263.916016"/>
     <use xlink:href="#DejaVuSans-Bold-6e" x="1301.123047"/>
     <use xlink:href="#DejaVuSans-Bold-74" x="1372.314453"/>
     <use xlink:href="#DejaVuSans-Bold-65" x="1420.117188"/>
     <use xlink:href="#DejaVuSans-Bold-72" x="1487.939453"/>
     <use xlink:href="#DejaVuSans-Bold-76" x="1537.255859"/>
     <use xlink:href="#DejaVuSans-Bold-61" x="1602.441406"/>
     <use xlink:href="#DejaVuSans-Bold-6c" x="1669.921875"/>
     <use xlink:href="#DejaVuSans-Bold-73" x="1704.199219"/>
     <use xlink:href="#DejaVuSans-Bold-29" x="1763.720703"/>
    </g>
   </g>
   <g id="legend_1">
    <g id="patch_5">
     <path d="M 677.525625 666.344125 
L 842.506875 666.344125 
Q 844.506875 666.344125 844.506875 664.344125 
L 844.506875 591.9535 
Q 844.506875 589.9535 842.506875 589.9535 
L 677.525625 589.9535 
Q 675.525625 589.9535 675.525625 591.9535 
L 675.525625 664.344125 
Q 675.525625 666.344125 677.525625 666.344125 
z
" style="fill: #ffffff; opacity: 0.8; stroke: #cccccc; stroke-linejoin: miter"/>
    </g>
    <g id="patch_6">
     <path d="M 679.525625 601.551938 
L 699.525625 601.551938 
L 699.525625 594.551938 
L 679.525625 594.551938 
z
" style="fill: #e74c3c; stroke: #000000; stroke-linejoin: miter"/>
    </g>
    <g id="text_25">
     <!-- FDR &lt; 0.01 -->
     <g transform="translate(707.525625 601.551938) scale(0.1 -0.1)">
      <defs>
       <path id="DejaVuSans-46" d="M 628 4666 
L 3309 4666 
L 3309 4134 
L 1259 4134 
L 1259 2759 
L 3109 2759 
L 3109 2228 
L 1259 2228 
L 1259 0 
L 628 0 
L 628 4666 
z
" transform="scale(0.015625)"/>
       <path id="DejaVuSans-3c" d="M 4684 3150 
L 1459 2003 
L 4684 863 
L 4684 294 
L 678 1747 
L 678 2266 
L 4684 3719 
L 4684 3150 
z
" transform="scale(0.015625)"/>
       <path id="DejaVuSans-2e" d="M 684 794 
L 1344 794 
L 1344 0 
L 684 0 
L 684 794 
z
" transform="scale(0.015625)"/>
      </defs>
      <use xlink:href="#DejaVuSans-46"/>
      <use xlink:href="#DejaVuSans-44" x="57.519531"/>
      <use xlink:href="#DejaVuSans-52" x="134.521484"/>
      <use xlink:href="#DejaVuSans-20" x="204.003906"/>
      <use xlink:href="#DejaVuSans-3c" x="235.791016"/>
      <use xlink:href="#DejaVuSans-20" x="319.580078"/>
      <use xlink:href="#DejaVuSans-30" x="351.367188"/>
      <use xlink:href="#DejaVuSans-2e" x="414.990234"/>
      <use xlink:href="#DejaVuSans-30" x="446.777344"/>
      <use xlink:href="#DejaVuSans-31" x="510.400391"/>
     </g>
    </g>
    <g id="patch_7">
     <path d="M 679.525625 616.230063 
L 699.525625 616.230063 
L 699.525625 609.230063 
L 679.525625 609.230063 
z
" style="fill: #f39c12; stroke: #000000; stroke-linejoin: miter"/>
    </g>
    <g id="text_26">
     <!-- FDR &lt; 0.05 -->
     <g transform="translate(707.525625 616.230063) scale(0.1 -0.1)">
      <use xlink:href="#DejaVuSans-46"/>
      <use xlink:href="#DejaVuSans-44" x="57.519531"/>
      <use xlink:href="#DejaVuSans-52" x="134.521484"/>
      <use xlink:href="#DejaVuSans-20" x="204.003906"/>
      <use xlink:href="#DejaVuSans-3c" x="235.791016"/>
      <use xlink:href="#DejaVuSans-20" x="319.580078"/>
      <use xlink:href="#DejaVuSans-30" x="351.367188"/>
      <use xlink:href="#DejaVuSans-2e" x="414.990234"/>
      <use xlink:href="#DejaVuSans-30" x="446.777344"/>
      <use xlink:href="#DejaVuSans-35" x="510.400391"/>
     </g>
    </g>
    <g id="patch_8">
     <path d="M 679.525625 630.908188 
L 699.525625 630.908188 
L 699.525625 623.908188 
L 679.525625 623.908188 
z
" style="fill: #3498db; stroke: #000000; stroke-linejoin: miter"/>
    </g>
    <g id="text_27">
     <!-- FDR  0.05 -->
     <g transform="translate(707.525625 630.908188) scale(0.1 -0.1)">
      <defs>
       <path id="DejaVuSans-2265" d="M 678 3175 
L 678 3725 
L 4684 2578 
L 4684 2047 
L 678 897 
L 678 1453 
L 3681 2309 
L 678 3175 
z
M 4684 531 
L 4684 0 
L 678 0 
L 678 531 
L 4684 531 
z
" transform="scale(0.015625)"/>
      </defs>
      <use xlink:href="#DejaVuSans-46"/>
      <use xlink:href="#DejaVuSans-44" x="57.519531"/>
      <use xlink:href="#DejaVuSans-52" x="134.521484"/>
      <use xlink:href="#DejaVuSans-20" x="204.003906"/>
      <use xlink:href="#DejaVuSans-2265" x="235.791016"/>
      <use xlink:href="#DejaVuSans-20" x="319.580078"/>
      <use xlink:href="#DejaVuSans-30" x="351.367188"/>
      <use xlink:href="#DejaVuSans-2e" x="414.990234"/>
      <use xlink:href="#DejaVuSans-30" x="446.777344"/>
      <use xlink:href="#DejaVuSans-35" x="510.400391"/>
     </g>
    </g>
    <g id="line2d_78">
     <path d="M 679.525625 642.086313 
L 689.525625 642.086313 
L 699.525625 642.086313 
" style="fill: none; stroke-dasharray: 5.55,2.4; stroke-dashoffset: 0; stroke: #27ae60; stroke-width: 1.5"/>
    </g>
    <g id="text_28">
     <!-- Large effect threshold -->
     <g transform="translate(707.525625 645.586313) scale(0.1 -0.1)">
      <use xlink:href="#DejaVuSans-4c"/>
      <use xlink:href="#DejaVuSans-61" x="55.712891"/>
      <use xlink:href="#DejaVuSans-72" x="116.992188"/>
      <use xlink:href="#DejaVuSans-67" x="156.355469"/>
      <use xlink:href="#DejaVuSans-65" x="219.832031"/>
      <use xlink:href="#DejaVuSans-20" x="281.355469"/>
      <use xlink:href="#DejaVuSans-65" x="313.142578"/>
      <use xlink:href="#DejaVuSans-66" x="374.666016"/>
      <use xlink:href="#DejaVuSans-66" x="409.871094"/>
      <use xlink:href="#DejaVuSans-65" x="445.076172"/>
      <use xlink:href="#DejaVuSans-63" x="506.599609"/>
      <use xlink:href="#DejaVuSans-74" x="561.580078"/>
      <use xlink:href="#DejaVuSans-20" x="600.789062"/>
      <use xlink:href="#DejaVuSans-74" x="632.576172"/>
      <use xlink:href="#DejaVuSans-68" x="671.785156"/>
      <use xlink:href="#DejaVuSans-72" x="735.164062"/>
      <use xlink:href="#DejaVuSans-65" x="774.027344"/>
      <use xlink:href="#DejaVuSans-73" x="835.550781"/>
      <use xlink:href="#DejaVuSans-68" x="887.650391"/>
      <use xlink:href="#DejaVuSans-6f" x="951.029297"/>
      <use xlink:href="#DejaVuSans-6c" x="1012.210938"/>
      <use xlink:href="#DejaVuSans-64" x="1039.994141"/>
     </g>
    </g>
    <g id="line2d_79">
     <path d="M 679.525625 656.764438 
L 689.525625 656.764438 
L 699.525625 656.764438 
" style="fill: none; stroke-dasharray: 5.55,2.4; stroke-dashoffset: 0; stroke: #8e44ad; stroke-width: 1.5"/>
    </g>
    <g id="text_29">
     <!-- Very large effect threshold -->
     <g transform="translate(707.525625 660.264438) scale(0.1 -0.1)">
      <use xlink:href="#DejaVuSans-56"/>
      <use xlink:href="#DejaVuSans-65" x="60.658203"/>
      <use xlink:href="#DejaVuSans-72" x="122.181641"/>
      <use xlink:href="#DejaVuSans-79" x="163.294922"/>
      <use xlink:href="#DejaVuSans-20" x="222.474609"/>
      <use xlink:href="#DejaVuSans-6c" x="254.261719"/>
      <use xlink:href="#DejaVuSans-61" x="282.044922"/>
      <use xlink:href="#DejaVuSans-72" x="343.324219"/>
      <use xlink:href="#DejaVuSans-67" x="382.6875"/>
      <use xlink:href="#DejaVuSans-65" x="446.164062"/>
      <use xlink:href="#DejaVuSans-20" x="507.6875"/>
      <use xlink:href="#DejaVuSans-65" x="539.474609"/>
      <use xlink:href="#DejaVuSans-66" x="600.998047"/>
      <use xlink:href="#DejaVuSans-66" x="636.203125"/>
      <use xlink:href="#DejaVuSans-65" x="671.408203"/>
      <use xlink:href="#DejaVuSans-63" x="732.931641"/>
      <use xlink:href="#DejaVuSans-74" x="787.912109"/>
      <use xlink:href="#DejaVuSans-20" x="827.121094"/>
      <use xlink:href="#DejaVuSans-74" x="858.908203"/>
      <use xlink:href="#DejaVuSans-68" x="898.117188"/>
      <use xlink:href="#DejaVuSans-72" x="961.496094"/>
      <use xlink:href="#DejaVuSans-65" x="1000.359375"/>
      <use xlink:href="#DejaVuSans-73" x="1061.882812"/>
      <use xlink:href="#DejaVuSans-68" x="1113.982422"/>
      <use xlink:href="#DejaVuSans-6f" x="1177.361328"/>
      <use xlink:href="#DejaVuSans-6c" x="1238.542969"/>
      <use xlink:href="#DejaVuSans-64" x="1266.326172"/>
     </g>
    </g>
   </g>
  </g>
 </g>
 <defs>
  <clipPath id="p08afb28026">
   <rect x="295.446875" y="48.624125" width="554.06" height="622.72"/>
  </clipPath>
 </defs>
</svg>
